<svg width="20" height="20" viewBox="0 0 20 20" fill="none" xmlns="http://www.w3.org/2000/svg">
<path d="M10 20C8.63077 20 7.34131 19.7375 6.13161 19.2124C4.92855 18.6939 3.86507 17.9761 2.94118 17.0588C2.02393 16.1349 1.30276 15.0715 0.777667 13.8684C0.259222 12.6587 0 11.3692 0 10C0 8.63077 0.259222 7.34463 0.777667 6.14157C1.30276 4.93187 2.02393 3.86839 2.94118 2.95115C3.85842 2.02725 4.91858 1.30608 6.12163 0.787637C7.33134 0.262546 8.6208 0 9.99003 0C11.3593 0 12.6487 0.262546 13.8584 0.787637C15.0681 1.30608 16.1316 2.02725 17.0489 2.95115C17.9661 3.86839 18.6873 4.93187 19.2124 6.14157C19.7375 7.34463 20 8.63077 20 10C20 11.3692 19.7375 12.6587 19.2124 13.8684C18.6873 15.0715 17.9661 16.1349 17.0489 17.0588C16.1316 17.9761 15.0681 18.6939 13.8584 19.2124C12.6554 19.7375 11.3692 20 10 20ZM8.90329 14.8156C9.02958 14.8156 9.1459 14.7856 9.25224 14.7258C9.35859 14.666 9.45164 14.5763 9.53141 14.4566L14.4666 6.73978C14.5131 6.66667 14.553 6.58691 14.5862 6.5005C14.6261 6.41409 14.6461 6.32768 14.6461 6.24128C14.6461 6.06846 14.5796 5.92888 14.4467 5.82253C14.3137 5.71618 14.1675 5.66301 14.008 5.66301C13.7886 5.66301 13.6058 5.77933 13.4596 6.01196L8.87338 13.2802L6.52044 10.3888C6.42738 10.2692 6.33433 10.1861 6.24128 10.1396C6.15487 10.0931 6.05517 10.0698 5.94217 10.0698C5.77601 10.0698 5.6331 10.1329 5.51346 10.2592C5.39382 10.3855 5.334 10.5351 5.334 10.7079C5.334 10.7943 5.35061 10.8807 5.38385 10.9671C5.41708 11.0469 5.46361 11.1266 5.52343 11.2064L8.23529 14.4566C8.33499 14.5829 8.43802 14.676 8.54437 14.7358C8.65071 14.789 8.77036 14.8156 8.90329 14.8156Z" fill="#00474D"/>
</svg>
