<svg width="24" height="25" viewBox="0 0 24 25" fill="none" xmlns="http://www.w3.org/2000/svg">
<path d="M12 24.0321C10.3569 24.0321 8.80957 23.7176 7.35793 23.0884C5.91426 22.4673 4.63809 21.6072 3.52941 20.5082C2.42871 19.4012 1.56331 18.127 0.9332 16.6856C0.311067 15.2362 0 13.6913 0 12.0507C0 10.4102 0.311067 8.86923 0.9332 7.4278C1.56331 5.97841 2.42871 4.70421 3.52941 3.60522C4.63011 2.49827 5.90229 1.6342 7.34596 1.01304C8.79761 0.383902 10.345 0.0693359 11.988 0.0693359C13.6311 0.0693359 15.1785 0.383902 16.6301 1.01304C18.0818 1.6342 19.3579 2.49827 20.4586 3.60522C21.5593 4.70421 22.4247 5.97841 23.0548 7.4278C23.6849 8.86923 24 10.4102 24 12.0507C24 13.6913 23.6849 15.2362 23.0548 16.6856C22.4247 18.127 21.5593 19.4012 20.4586 20.5082C19.3579 21.6072 18.0818 22.4673 16.6301 23.0884C15.1864 23.7176 13.6431 24.0321 12 24.0321ZM12 22.4911C13.4437 22.4911 14.7996 22.2204 16.0678 21.6789C17.336 21.1373 18.4487 20.3887 19.4058 19.4331C20.3629 18.4774 21.1087 17.3705 21.6431 16.1122C22.1854 14.846 22.4566 13.4922 22.4566 12.0507C22.4566 10.6093 22.1854 9.25945 21.6431 8.00119C21.1007 6.73496 20.347 5.62402 19.3819 4.66838C18.4247 3.70477 17.3161 2.95618 16.0558 2.42261C14.7956 1.88108 13.4397 1.61031 11.988 1.61031C10.5444 1.61031 9.18843 1.88108 7.92024 2.42261C6.66002 2.95618 5.55135 3.70477 4.59422 4.66838C3.64506 5.62402 2.8993 6.73496 2.35693 8.00119C1.82253 9.25945 1.55533 10.6093 1.55533 12.0507C1.55533 13.4922 1.82253 14.846 2.35693 16.1122C2.8993 17.3705 3.64905 18.4774 4.60618 19.4331C5.56331 20.3887 6.67198 21.1373 7.9322 21.6789C9.19242 22.2204 10.5484 22.4911 12 22.4911ZM6.55633 12.0507C6.55633 11.8198 6.62812 11.6326 6.77169 11.4893C6.91525 11.3459 7.10668 11.2743 7.34596 11.2743H11.2223V7.39196C11.2223 7.16102 11.2941 6.97387 11.4377 6.83052C11.5813 6.67921 11.7607 6.60356 11.9761 6.60356C12.2074 6.60356 12.3948 6.67523 12.5384 6.81858C12.682 6.96192 12.7537 7.15305 12.7537 7.39196V11.2743H16.654C16.8774 11.2743 17.0608 11.3459 17.2044 11.4893C17.348 11.6326 17.4197 11.8198 17.4197 12.0507C17.4197 12.2658 17.348 12.4449 17.2044 12.5883C17.0608 12.7237 16.8774 12.7914 16.654 12.7914H12.7537V16.6856C12.7537 16.9166 12.682 17.1037 12.5384 17.247C12.3948 17.3904 12.2074 17.4621 11.9761 17.4621C11.7607 17.4621 11.5813 17.3904 11.4377 17.247C11.2941 17.0957 11.2223 16.9086 11.2223 16.6856V12.7914H7.34596C7.11466 12.7914 6.92323 12.7237 6.77169 12.5883C6.62812 12.4449 6.55633 12.2658 6.55633 12.0507Z" fill="#00474D"/>
</svg>
