<svg width="20" height="20" viewBox="0 0 20 20" fill="none" xmlns="http://www.w3.org/2000/svg">
<path d="M5.25424 3.06215C5.56309 3.06215 5.84181 3.14878 6.0904 3.32203C6.33898 3.49529 6.53107 3.69868 6.66667 3.9322C6.80226 3.69868 6.99058 3.49529 7.23164 3.32203C7.48023 3.14878 7.75518 3.06215 8.0565 3.06215C8.53861 3.06215 8.93785 3.22787 9.25424 3.55932C9.57815 3.88324 9.74011 4.29002 9.74011 4.77966C9.74011 5.20151 9.63842 5.60452 9.43503 5.9887C9.23917 6.37288 8.99058 6.7307 8.68927 7.06215C8.38795 7.3936 8.07156 7.68738 7.74011 7.9435C7.4162 8.19209 7.12618 8.39548 6.87006 8.55367C6.83239 8.57627 6.79473 8.5951 6.75706 8.61017C6.7194 8.62524 6.68927 8.63277 6.66667 8.63277C6.63654 8.63277 6.60264 8.62524 6.56497 8.61017C6.53484 8.58757 6.50094 8.56874 6.46328 8.55367C6.19962 8.40301 5.90207 8.20339 5.57062 7.9548C5.23917 7.69868 4.92279 7.4049 4.62147 7.07345C4.32015 6.742 4.07156 6.38418 3.87571 6C3.67985 5.60829 3.58192 5.20151 3.58192 4.77966C3.58192 4.29002 3.73635 3.88324 4.0452 3.55932C4.36158 3.22787 4.7646 3.06215 5.25424 3.06215ZM3.9774 12.7006C3.86441 12.7006 3.77024 12.6629 3.69492 12.5876C3.61959 12.5122 3.58192 12.4256 3.58192 12.3277C3.58192 12.2222 3.61959 12.1356 3.69492 12.0678C3.77024 11.9925 3.86441 11.9548 3.9774 11.9548H15.5367C15.6497 11.9548 15.7439 11.9925 15.8192 12.0678C15.8945 12.1356 15.9322 12.2222 15.9322 12.3277C15.9322 12.4256 15.8945 12.5122 15.8192 12.5876C15.7439 12.6629 15.6497 12.7006 15.5367 12.7006H3.9774ZM3.9774 16.3729C3.86441 16.3729 3.77024 16.3352 3.69492 16.2599C3.61959 16.1846 3.58192 16.0942 3.58192 15.9887C3.58192 15.8908 3.61959 15.8041 3.69492 15.7288C3.77024 15.6535 3.86441 15.6158 3.9774 15.6158H12.226C12.3315 15.6158 12.4218 15.6535 12.4972 15.7288C12.5725 15.8041 12.6102 15.8908 12.6102 15.9887C12.6102 16.0942 12.5725 16.1846 12.4972 16.2599C12.4218 16.3352 12.3315 16.3729 12.226 16.3729H3.9774ZM3.03955 20C2.0452 20 1.28814 19.7439 0.768362 19.2316C0.256121 18.7194 0 17.9661 0 16.9718V3.03955C0 2.03766 0.256121 1.2806 0.768362 0.768362C1.28814 0.256121 2.0452 0 3.03955 0H16.9492C17.951 0 18.7081 0.259887 19.2203 0.779661C19.7401 1.29944 20 2.05273 20 3.03955V16.9718C20 17.9586 19.7401 18.7081 19.2203 19.2203C18.7081 19.7401 17.951 20 16.9492 20H3.03955ZM3.07345 19.1638H16.9266C17.6347 19.1638 18.1846 18.9755 18.5763 18.5989C18.968 18.2222 19.1638 17.6648 19.1638 16.9266V3.08475C19.1638 2.33898 18.968 1.77778 18.5763 1.40113C18.1846 1.02448 17.6347 0.836158 16.9266 0.836158H3.07345C2.33522 0.836158 1.77778 1.02448 1.40113 1.40113C1.02448 1.77778 0.836158 2.33898 0.836158 3.08475V16.9266C0.836158 17.6648 1.02448 18.2222 1.40113 18.5989C1.77778 18.9755 2.33522 19.1638 3.07345 19.1638Z" fill="#313131"/>
</svg>
