<svg width="18" height="16" viewBox="0 0 18 16" fill="none" xmlns="http://www.w3.org/2000/svg">
<path d="M8.64135 16C8.51758 16 8.37131 15.9578 8.20253 15.8734C8.03938 15.7947 7.87904 15.7046 7.72152 15.6034C6.16315 14.5907 4.8045 13.5274 3.64557 12.4135C2.48664 11.294 1.58931 10.1435 0.953587 8.96203C0.317862 7.77497 0 6.57947 0 5.37553C0 4.57665 0.126582 3.8481 0.379747 3.18987C0.638537 2.53165 0.995781 1.96343 1.45148 1.48523C1.90717 1.00703 2.43038 0.64135 3.0211 0.388186C3.61744 0.129395 4.25598 0 4.93671 0C5.78622 0 6.52039 0.213783 7.13924 0.64135C7.76371 1.06892 8.26442 1.62588 8.64135 2.31224C9.01266 1.62025 9.51055 1.06329 10.135 0.64135C10.7595 0.213783 11.4937 0 12.3376 0C13.0183 0 13.6568 0.129395 14.2532 0.388186C14.8495 0.64135 15.3727 1.00703 15.8228 1.48523C16.2729 1.96343 16.6273 2.53165 16.8861 3.18987C17.1449 3.8481 17.2743 4.57665 17.2743 5.37553C17.2743 6.57947 16.9564 7.77497 16.3207 8.96203C15.685 10.1435 14.7876 11.294 13.6287 12.4135C12.4754 13.5274 11.1167 14.5907 9.55274 15.6034C9.40084 15.7046 9.24051 15.7947 9.07173 15.8734C8.90858 15.9578 8.76512 16 8.64135 16Z" fill="#18B09D"/>
</svg>
