<svg width="20" height="20" viewBox="0 0 20 20" fill="none" xmlns="http://www.w3.org/2000/svg">
<path d="M9.9949 20C8.62145 20 7.32959 19.7381 6.11933 19.2143C4.91586 18.6973 3.85518 17.9796 2.93728 17.0612C2.01938 16.1429 1.29866 15.0816 0.775115 13.8776C0.258372 12.6667 0 11.3741 0 10C0 8.62585 0.258372 7.33673 0.775115 6.13265C1.29866 4.92177 2.01938 3.85714 2.93728 2.93878C3.85518 2.02041 4.91586 1.30272 6.11933 0.785714C7.32959 0.261905 8.62145 0 9.9949 0C11.3684 0 12.6568 0.261905 13.8603 0.785714C15.0705 1.30272 16.1346 2.02041 17.0525 2.93878C17.9704 3.85714 18.6911 4.92177 19.2147 6.13265C19.7382 7.33673 20 8.62585 20 10C20 11.3741 19.7382 12.6667 19.2147 13.8776C18.6911 15.0816 17.9704 16.1429 17.0525 17.0612C16.1346 17.9796 15.0739 18.6973 13.8705 19.2143C12.667 19.7381 11.3751 20 9.9949 20ZM9.9949 19.2245C11.2732 19.2245 12.4698 18.9864 13.5849 18.5102C14.7 18.034 15.6791 17.3741 16.5222 16.5306C17.3721 15.6803 18.035 14.6973 18.511 13.5816C18.9869 12.466 19.2249 11.2721 19.2249 10C19.2249 8.72789 18.9869 7.53401 18.511 6.41837C18.035 5.30272 17.3721 4.31973 16.5222 3.46939C15.6723 2.61905 14.6898 1.95578 13.5747 1.47959C12.4664 1.0034 11.2732 0.765306 9.9949 0.765306C8.72344 0.765306 7.53017 1.0034 6.41509 1.47959C5.30002 1.95578 4.31753 2.61905 3.46762 3.46939C2.62451 4.31973 1.96498 5.30272 1.48904 6.41837C1.01309 7.53401 0.775115 8.72789 0.775115 10C0.775115 11.2721 1.01309 12.466 1.48904 13.5816C1.96498 14.6973 2.62451 15.6803 3.46762 16.5306C4.31753 17.3741 5.30002 18.034 6.41509 18.5102C7.53017 18.9864 8.72344 19.2245 9.9949 19.2245ZM10.1581 15.4184C9.42376 15.4184 8.73024 15.2755 8.07751 14.9898C7.43158 14.7041 6.85705 14.3129 6.3539 13.8163C5.85756 13.3129 5.4666 12.7381 5.18103 12.0918C4.89546 11.4388 4.75268 10.7449 4.75268 10.0102C4.75268 9.27551 4.89206 8.58163 5.17083 7.92857C5.4564 7.27551 5.84736 6.70068 6.3437 6.20408C6.84685 5.70068 7.42478 5.30612 8.07751 5.02041C8.73024 4.73469 9.42376 4.59184 10.1581 4.59184C10.8924 4.59184 11.5825 4.73469 12.2285 5.02041C12.8812 5.30612 13.4557 5.70068 13.9521 6.20408C14.4552 6.70068 14.8496 7.27551 15.1351 7.92857C15.4207 8.58163 15.5635 9.27551 15.5635 10.0102C15.5635 10.7449 15.4207 11.4388 15.1351 12.0918C14.8496 12.7381 14.4586 13.3129 13.9623 13.8163C13.4659 14.3129 12.8914 14.7041 12.2387 14.9898C11.5859 15.2755 10.8924 15.4184 10.1581 15.4184ZM10.1581 14.6633C11.0012 14.6633 11.7763 14.4524 12.4834 14.0306C13.1905 13.6088 13.7549 13.0476 14.1764 12.3469C14.598 11.6395 14.8088 10.8605 14.8088 10.0102C14.8088 9.15986 14.598 8.38095 14.1764 7.67347C13.7549 6.96599 13.1905 6.40136 12.4834 5.97959C11.7831 5.55782 11.008 5.34694 10.1581 5.34694C9.30138 5.34694 8.51946 5.55782 7.81234 5.97959C7.11202 6.40136 6.55108 6.96599 6.12953 7.67347C5.70797 8.38095 5.4972 9.15986 5.4972 10.0102C5.4972 10.8605 5.70797 11.6395 6.12953 12.3469C6.55788 13.0476 7.12222 13.6088 7.82254 14.0306C8.52966 14.4524 9.30818 14.6633 10.1581 14.6633Z" fill="#313131"/>
</svg>
