<svg width="15" height="12" viewBox="0 0 15 12" fill="none" xmlns="http://www.w3.org/2000/svg">
<path d="M1.25684 11.3145C1.1748 11.237 1.12012 11.1458 1.09277 11.041C1.06999 10.9362 1.07227 10.8314 1.09961 10.7266C1.12695 10.6217 1.17936 10.5306 1.25684 10.4531L5.63184 6.07129L1.25684 1.69629C1.17936 1.61882 1.12695 1.52767 1.09961 1.42285C1.07682 1.31803 1.07682 1.21322 1.09961 1.1084C1.12695 1.00358 1.17936 0.912435 1.25684 0.834961C1.33431 0.75293 1.42546 0.700521 1.53027 0.677734C1.63509 0.650391 1.73991 0.650391 1.84473 0.677734C1.9541 0.700521 2.04753 0.75293 2.125 0.834961L6.5 5.20996L10.875 0.834961C10.9525 0.75293 11.0436 0.700521 11.1484 0.677734C11.2533 0.650391 11.3581 0.650391 11.4629 0.677734C11.5677 0.700521 11.6611 0.75293 11.7432 0.834961C11.8206 0.912435 11.873 1.00358 11.9004 1.1084C11.9277 1.21322 11.9277 1.31803 11.9004 1.42285C11.873 1.52767 11.8206 1.61882 11.7432 1.69629L7.36816 6.07129L11.7432 10.4531C11.8206 10.5306 11.8708 10.6217 11.8936 10.7266C11.9209 10.8314 11.9209 10.9362 11.8936 11.041C11.8708 11.1458 11.8206 11.237 11.7432 11.3145C11.6657 11.3965 11.5723 11.4489 11.4629 11.4717C11.3581 11.499 11.2533 11.499 11.1484 11.4717C11.0436 11.4443 10.9525 11.3919 10.875 11.3145L6.5 6.93945L2.125 11.3145C2.04753 11.3919 1.95638 11.4443 1.85156 11.4717C1.74674 11.499 1.64193 11.499 1.53711 11.4717C1.43229 11.4443 1.33887 11.3919 1.25684 11.3145Z" fill="#856A31"/>
</svg>
