<svg width="19" height="20" viewBox="0 0 19 20" fill="none" xmlns="http://www.w3.org/2000/svg">
<path d="M1.97765 20C0.659218 20 0 19.5084 0 18.5251C0 17.8101 0.216015 17.0503 0.648045 16.2458C1.08752 15.4413 1.71695 14.689 2.53631 13.9888C3.36313 13.2812 4.35754 12.7076 5.51955 12.2682C6.68156 11.8212 7.99255 11.5978 9.45251 11.5978C10.905 11.5978 12.2123 11.8212 13.3743 12.2682C14.5438 12.7076 15.5382 13.2812 16.3575 13.9888C17.1769 14.689 17.8063 15.4413 18.2458 16.2458C18.6853 17.0503 18.905 17.8101 18.905 18.5251C18.905 19.5084 18.2421 20 16.9162 20H1.97765ZM1.87709 19.1955H17.0391C17.4339 19.1955 17.7058 19.1434 17.8547 19.0391C18.0037 18.9348 18.0782 18.7523 18.0782 18.4916C18.0782 17.8659 17.8845 17.203 17.4972 16.5028C17.1099 15.7952 16.5438 15.1322 15.7989 14.514C15.0615 13.8883 14.1564 13.3818 13.0838 12.9944C12.0186 12.5996 10.8082 12.4022 9.45251 12.4022C8.09683 12.4022 6.88268 12.5996 5.81006 12.9944C4.74488 13.3818 3.83985 13.8883 3.09497 14.514C2.35754 15.1322 1.79516 15.7952 1.40782 16.5028C1.02048 17.203 0.826816 17.8659 0.826816 18.4916C0.826816 18.7523 0.901304 18.9348 1.05028 19.0391C1.19926 19.1434 1.47486 19.1955 1.87709 19.1955ZM9.47486 9.89944C8.6257 9.89944 7.8622 9.6797 7.18436 9.24022C6.50652 8.7933 5.96648 8.19367 5.56425 7.44134C5.16946 6.68156 4.96462 5.8324 4.94972 4.89385C4.94972 4.00745 5.15084 3.19553 5.55307 2.4581C5.96276 1.71322 6.51024 1.11732 7.19553 0.670391C7.88082 0.223464 8.6406 0 9.47486 0C10.3017 0 11.0577 0.223464 11.743 0.670391C12.4283 1.10987 12.9721 1.70205 13.3743 2.44693C13.784 3.18436 13.9888 4.00372 13.9888 4.90503C13.9888 5.83613 13.7877 6.68156 13.3855 7.44134C12.9907 8.19367 12.4507 8.7933 11.7654 9.24022C11.0875 9.6797 10.324 9.89944 9.47486 9.89944ZM9.47486 9.09497C10.1676 9.09497 10.7933 8.91248 11.352 8.54749C11.9106 8.17505 12.3501 7.67225 12.6704 7.03911C12.9981 6.40596 13.162 5.6946 13.162 4.90503C13.162 4.14525 12.9944 3.45624 12.6592 2.83799C12.3315 2.21974 11.8883 1.72812 11.3296 1.36313C10.7709 0.990689 10.1527 0.804469 9.47486 0.804469C8.78957 0.804469 8.1676 0.990689 7.60894 1.36313C7.05028 1.73557 6.60335 2.23091 6.26816 2.84916C5.94041 3.46741 5.77654 4.14898 5.77654 4.89385C5.77654 5.69088 5.94041 6.40596 6.26816 7.03911C6.5959 7.67225 7.03911 8.17505 7.59776 8.54749C8.15642 8.91248 8.78212 9.09497 9.47486 9.09497Z" fill="#313131"/>
</svg>
