<svg width="20" height="16" viewBox="0 0 20 16" fill="none" xmlns="http://www.w3.org/2000/svg">
<path d="M0.392827 7.20752H19.6157V8.2579H0.392827V7.20752ZM2.51067 15.4569C1.67948 15.4569 1.05323 15.2462 0.631939 14.8249C0.210646 14.4093 0 13.7916 0 12.9718V2.4936C0 1.66809 0.210646 1.04754 0.631939 0.631939C1.05323 0.210646 1.67948 0 2.51067 0H17.4808C18.3177 0 18.9468 0.213493 19.3681 0.640478C19.7894 1.06177 20 1.67948 20 2.4936V12.9718C20 13.7916 19.7894 14.4093 19.3681 14.8249C18.9468 15.2462 18.3177 15.4569 17.4808 15.4569H2.51067ZM2.53629 14.4065H17.4637C17.9362 14.4065 18.3006 14.2812 18.5568 14.0307C18.813 13.7802 18.9411 13.4073 18.9411 12.912V2.55337C18.9411 2.05807 18.813 1.68517 18.5568 1.43467C18.3006 1.17848 17.9362 1.05038 17.4637 1.05038H2.53629C2.05238 1.05038 1.68232 1.17848 1.42613 1.43467C1.17563 1.68517 1.05038 2.05807 1.05038 2.55337V12.912C1.05038 13.4073 1.17563 13.7802 1.42613 14.0307C1.68232 14.2812 2.05238 14.4065 2.53629 14.4065Z" fill="#313131"/>
</svg>
