<svg width="24" height="25" viewBox="0 0 24 25" fill="none" xmlns="http://www.w3.org/2000/svg">
<path d="M12 24.0321C10.3569 24.0321 8.80957 23.7176 7.35793 23.0884C5.91426 22.4673 4.63809 21.6072 3.52941 20.5082C2.42871 19.4012 1.56331 18.127 0.9332 16.6856C0.311067 15.2362 0 13.6913 0 12.0507C0 10.4102 0.311067 8.86923 0.9332 7.4278C1.56331 5.97841 2.42871 4.70421 3.52941 3.60522C4.63011 2.49827 5.90229 1.6342 7.34596 1.01304C8.79761 0.383902 10.345 0.0693359 11.988 0.0693359C13.6311 0.0693359 15.1785 0.383902 16.6301 1.01304C18.0818 1.6342 19.3579 2.49827 20.4586 3.60522C21.5593 4.70421 22.4247 5.97841 23.0548 7.4278C23.6849 8.86923 24 10.4102 24 12.0507C24 13.6913 23.6849 15.2362 23.0548 16.6856C22.4247 18.127 21.5593 19.4012 20.4586 20.5082C19.3579 21.6072 18.0818 22.4673 16.6301 23.0884C15.1864 23.7176 13.6431 24.0321 12 24.0321ZM12 22.4911C13.4437 22.4911 14.7996 22.2204 16.0678 21.6789C17.336 21.1373 18.4487 20.3887 19.4058 19.4331C20.3629 18.4774 21.1087 17.3705 21.6431 16.1122C22.1854 14.846 22.4566 13.4922 22.4566 12.0507C22.4566 10.6093 22.1854 9.25945 21.6431 8.00119C21.1007 6.73496 20.347 5.62402 19.3819 4.66838C18.4247 3.70477 17.3161 2.95618 16.0558 2.42261C14.7956 1.88108 13.4397 1.61031 11.988 1.61031C10.5444 1.61031 9.18843 1.88108 7.92024 2.42261C6.66002 2.95618 5.55135 3.70477 4.59422 4.66838C3.64506 5.62402 2.8993 6.73496 2.35693 8.00119C1.82253 9.25945 1.55533 10.6093 1.55533 12.0507C1.55533 13.4922 1.82253 14.846 2.35693 16.1122C2.8993 17.3705 3.64905 18.4774 4.60618 19.4331C5.56331 20.3887 6.67198 21.1373 7.9322 21.6789C9.19242 22.2204 10.5484 22.4911 12 22.4911ZM11.988 17.9279C11.1904 17.9279 10.4845 17.7806 9.87039 17.486C9.25623 17.1913 8.77767 16.8568 8.4347 16.4825C8.0997 16.1082 7.9322 15.7977 7.9322 15.5508C7.9322 15.4313 7.97607 15.3517 8.06381 15.3119C8.15952 15.2721 8.25523 15.276 8.35095 15.3238C8.75773 15.5946 9.24825 15.8454 9.82253 16.0764C10.4048 16.2994 11.1266 16.4109 11.988 16.4109C12.8495 16.4109 13.5713 16.2994 14.1535 16.0764C14.7358 15.8454 15.2263 15.5946 15.6251 15.3238C15.7208 15.276 15.8126 15.2721 15.9003 15.3119C15.996 15.3517 16.0439 15.4313 16.0439 15.5508C16.0439 15.7977 15.8724 16.1082 15.5294 16.4825C15.1944 16.8568 14.7198 17.1913 14.1057 17.486C13.4995 17.7806 12.7936 17.9279 11.988 17.9279ZM8.41077 10.9398C8.0678 10.9398 7.76471 10.7925 7.5015 10.4978C7.23829 10.2032 7.10668 9.83284 7.10668 9.38687C7.10668 8.94887 7.2343 8.58254 7.48953 8.28788C7.75274 7.98526 8.05982 7.83395 8.41077 7.83395C8.76969 7.83395 9.08076 7.98526 9.34397 8.28788C9.61515 8.58254 9.75075 8.94887 9.75075 9.38687C9.75075 9.83284 9.61515 10.2032 9.34397 10.4978C9.08076 10.7925 8.76969 10.9398 8.41077 10.9398ZM15.5533 10.9398C15.2104 10.9398 14.9073 10.7925 14.6441 10.4978C14.3809 10.2032 14.2493 9.83284 14.2493 9.38687C14.2493 8.94887 14.3769 8.58254 14.6321 8.28788C14.8953 7.98526 15.2024 7.83395 15.5533 7.83395C15.9123 7.83395 16.2233 7.98526 16.4865 8.28788C16.7498 8.58254 16.8814 8.94887 16.8814 9.38687C16.8814 9.83284 16.7498 10.2032 16.4865 10.4978C16.2233 10.7925 15.9123 10.9398 15.5533 10.9398Z" fill="#00474D"/>
</svg>
