<svg width="20" height="17" viewBox="0 0 20 17" fill="none" xmlns="http://www.w3.org/2000/svg">
<path d="M13.798 16.9091C13.3805 16.9091 13 16.8081 12.6566 16.6061C12.3131 16.404 12.037 16.1313 11.8283 15.7879C11.6263 15.4444 11.5253 15.064 11.5253 14.6465C11.5253 14.229 11.6263 13.8485 11.8283 13.5051C12.037 13.1616 12.3131 12.8889 12.6566 12.6869C13 12.4781 13.3805 12.3737 13.798 12.3737C14.2155 12.3737 14.596 12.4781 14.9394 12.6869C15.2828 12.8889 15.5556 13.1616 15.7576 13.5051C15.9663 13.8485 16.0707 14.229 16.0707 14.6465C16.0707 15.064 15.9663 15.4444 15.7576 15.7879C15.5556 16.1313 15.2828 16.404 14.9394 16.6061C14.596 16.8081 14.2155 16.9091 13.798 16.9091ZM13.798 15.8889C14.1481 15.8889 14.4411 15.7677 14.6768 15.5253C14.9192 15.2828 15.0404 14.9899 15.0404 14.6465C15.0404 14.2896 14.9192 13.9933 14.6768 13.7576C14.4411 13.5219 14.1481 13.404 13.798 13.404C13.4478 13.404 13.1515 13.5219 12.9091 13.7576C12.6734 13.9933 12.5556 14.2896 12.5556 14.6465C12.5556 14.9899 12.6734 15.2828 12.9091 15.5253C13.1515 15.7677 13.4478 15.8889 13.798 15.8889ZM12.1717 14.0202V15.2626H0.616162C0.447811 15.2626 0.30303 15.202 0.181818 15.0808C0.0606061 14.9596 0 14.8148 0 14.6465C0 14.4714 0.0606061 14.3232 0.181818 14.202C0.30303 14.0808 0.447811 14.0202 0.616162 14.0202H12.1717ZM19.404 14.0202C19.5657 14.0202 19.7037 14.0808 19.8182 14.202C19.9394 14.3232 20 14.4714 20 14.6465C20 14.8148 19.9394 14.9596 19.8182 15.0808C19.7037 15.202 19.5657 15.2626 19.404 15.2626H15.5051V14.0202H19.404ZM6.46465 10.7475C6.04714 10.7475 5.66667 10.6431 5.32323 10.4343C4.9798 10.2256 4.7037 9.9495 4.49495 9.60606C4.29293 9.26263 4.19192 8.88552 4.19192 8.47475C4.19192 8.05724 4.29293 7.67677 4.49495 7.33333C4.7037 6.9899 4.9798 6.71717 5.32323 6.51515C5.66667 6.3064 6.04714 6.20202 6.46465 6.20202C6.87542 6.20202 7.25253 6.3064 7.59596 6.51515C7.93939 6.71717 8.21212 6.9899 8.41414 7.33333C8.6229 7.67677 8.72727 8.05724 8.72727 8.47475C8.72727 8.88552 8.6229 9.26263 8.41414 9.60606C8.21212 9.9495 7.93939 10.2256 7.59596 10.4343C7.25253 10.6431 6.87542 10.7475 6.46465 10.7475ZM6.46465 9.70707C6.81482 9.70707 7.10774 9.58586 7.34343 9.34343C7.58586 9.10101 7.70707 8.80808 7.70707 8.46465C7.70707 8.11448 7.58586 7.82155 7.34343 7.58586C7.10774 7.34343 6.81482 7.22222 6.46465 7.22222C6.11448 7.22222 5.81818 7.34343 5.57576 7.58586C5.34007 7.82155 5.22222 8.11448 5.22222 8.46465C5.22222 8.80808 5.34007 9.10101 5.57576 9.34343C5.81818 9.58586 6.11448 9.70707 6.46465 9.70707ZM0.59596 7.83838H4.77778V9.08081H0.59596C0.434343 9.08081 0.292929 9.02357 0.171717 8.90909C0.0572391 8.78788 0 8.63973 0 8.46465C0 8.28956 0.0572391 8.14141 0.171717 8.0202C0.292929 7.89899 0.434343 7.83838 0.59596 7.83838ZM19.3838 7.83838C19.5522 7.83838 19.697 7.89899 19.8182 8.0202C19.9394 8.14141 20 8.28956 20 8.46465C20 8.63973 19.9394 8.78788 19.8182 8.90909C19.697 9.02357 19.5522 9.08081 19.3838 9.08081H8.08081V7.83838H19.3838ZM13.798 4.54545C13.3805 4.54545 13 4.44444 12.6566 4.24242C12.3131 4.03367 12.037 3.75758 11.8283 3.41414C11.6263 3.07071 11.5253 2.6936 11.5253 2.28283C11.5253 1.86532 11.6263 1.48485 11.8283 1.14141C12.037 0.79798 12.3131 0.521886 12.6566 0.313131C13 0.104377 13.3805 0 13.798 0C14.2155 0 14.596 0.104377 14.9394 0.313131C15.2828 0.521886 15.5556 0.79798 15.7576 1.14141C15.9663 1.48485 16.0707 1.86532 16.0707 2.28283C16.0707 2.6936 15.9663 3.07071 15.7576 3.41414C15.5556 3.75758 15.2828 4.03367 14.9394 4.24242C14.596 4.44444 14.2155 4.54545 13.798 4.54545ZM13.798 3.51515C14.1481 3.51515 14.4411 3.39394 14.6768 3.15152C14.9192 2.90909 15.0404 2.61279 15.0404 2.26263C15.0404 1.91919 14.9192 1.62963 14.6768 1.39394C14.4411 1.15152 14.1481 1.0303 13.798 1.0303C13.4478 1.0303 13.1515 1.15152 12.9091 1.39394C12.6734 1.62963 12.5556 1.91919 12.5556 2.26263C12.5556 2.61279 12.6734 2.90909 12.9091 3.15152C13.1515 3.39394 13.4478 3.51515 13.798 3.51515ZM12.1717 1.66667V2.90909H0.616162C0.447811 2.90909 0.30303 2.84848 0.181818 2.72727C0.0606061 2.60606 0 2.45791 0 2.28283C0 2.11448 0.0606061 1.9697 0.181818 1.84848C0.30303 1.72727 0.447811 1.66667 0.616162 1.66667H12.1717ZM19.404 1.66667C19.5657 1.66667 19.7037 1.72727 19.8182 1.84848C19.9394 1.9697 20 2.11448 20 2.28283C20 2.45791 19.9394 2.60606 19.8182 2.72727C19.7037 2.84848 19.5657 2.90909 19.404 2.90909H15.4444V1.66667H19.404Z" fill="#313131"/>
</svg>
