<svg width="27" height="32" viewBox="0 0 27 32" fill="none" xmlns="http://www.w3.org/2000/svg">
<g filter="url(#filter0_d_14_38)">
<path d="M13.1237 23C11.6783 23 10.4206 22.742 9.35067 22.226C8.28697 21.7164 7.46103 20.9997 6.87286 20.076C6.29095 19.1523 6 18.0693 6 16.827C6 16.1645 6.05319 15.5848 6.15956 15.0879C6.27218 14.5846 6.40671 14.1292 6.56314 13.7215C6.72582 13.3137 6.88851 12.922 7.05119 12.5461C7.21388 12.1639 7.3484 11.7689 7.45477 11.3612C7.56114 10.9535 7.61433 10.4948 7.61433 9.98519C7.61433 9.76859 7.60181 9.53607 7.57679 9.28763C7.55801 9.03281 7.54863 8.84169 7.54863 8.71429C7.54863 8.60599 7.57679 8.51999 7.6331 8.45628C7.68941 8.38621 7.76763 8.35117 7.86774 8.35117C8.12428 8.35117 8.42149 8.44036 8.75938 8.61873C9.09726 8.79073 9.41637 9.03918 9.71671 9.36407C10.0171 9.68259 10.2423 10.0584 10.3925 10.4916L10.0546 10.5776C10.2486 10.3228 10.3862 10.0616 10.4676 9.79408C10.5489 9.52015 10.5896 9.23666 10.5896 8.94362C10.5958 8.37665 10.4863 7.81287 10.2611 7.25227C10.0421 6.6853 9.75738 6.13426 9.40698 5.59914C9.05659 5.06402 8.69055 4.56394 8.30887 4.0989C8.22752 3.99697 8.16808 3.90779 8.13054 3.83134C8.093 3.74853 8.07422 3.6689 8.07422 3.59245C8.07422 3.39497 8.15244 3.24845 8.30887 3.15289C8.46529 3.05096 8.69368 3 8.99402 3C9.84498 3 10.7272 3.09874 11.6408 3.29623C12.5606 3.49371 13.4678 3.79949 14.3626 4.21357C15.2574 4.62765 16.0989 5.15321 16.8873 5.79025C17.682 6.4273 18.3859 7.18219 18.9991 8.05494C19.6123 8.9277 20.0941 9.92148 20.4445 11.0363C20.7949 12.1511 20.9701 13.3997 20.9701 14.7821C20.9701 16.018 20.7824 17.1424 20.4069 18.1553C20.0378 19.1618 19.5059 20.0282 18.8114 20.7544C18.1169 21.4743 17.2878 22.0285 16.3242 22.4171C15.3669 22.8057 14.3 23 13.1237 23ZM13.2363 20.3053C13.9121 20.3053 14.4752 20.1556 14.9257 19.8562C15.3762 19.5568 15.711 19.1618 15.93 18.6713C16.149 18.1744 16.2585 17.6393 16.2585 17.0659C16.2585 16.499 16.149 15.9288 15.93 15.3555C15.711 14.7821 15.3919 14.2534 14.9727 13.7692C14.5534 13.2851 14.0341 12.8901 13.4146 12.5843C13.3771 12.5652 13.3458 12.5652 13.3208 12.5843C13.302 12.6034 13.2958 12.6321 13.302 12.6703C13.4146 13.422 13.424 14.0973 13.3302 14.6961C13.2426 15.295 13.083 15.7473 12.8515 16.053C12.7326 15.8046 12.5981 15.5689 12.4479 15.3459C12.2978 15.1166 12.1194 14.9191 11.9129 14.7535C11.8879 14.728 11.8629 14.7216 11.8379 14.7344C11.8128 14.7407 11.7972 14.763 11.7909 14.8012C11.7534 15.0497 11.6689 15.279 11.5375 15.4892C11.4124 15.6995 11.2747 15.9161 11.1246 16.139C10.9806 16.3556 10.8555 16.6041 10.7491 16.8844C10.6428 17.1583 10.5896 17.4864 10.5896 17.8686C10.5896 18.5948 10.8305 19.1841 11.3123 19.6364C11.7941 20.0823 12.4354 20.3053 13.2363 20.3053Z" fill="url(#paint0_linear_14_38)"/>
</g>
<defs>
<filter id="filter0_d_14_38" x="0" y="0" width="26.9701" height="32" filterUnits="userSpaceOnUse" color-interpolation-filters="sRGB">
<feFlood flood-opacity="0" result="BackgroundImageFix"/>
<feColorMatrix in="SourceAlpha" type="matrix" values="0 0 0 0 0 0 0 0 0 0 0 0 0 0 0 0 0 0 127 0" result="hardAlpha"/>
<feOffset dy="3"/>
<feGaussianBlur stdDeviation="3"/>
<feComposite in2="hardAlpha" operator="out"/>
<feColorMatrix type="matrix" values="0 0 0 0 0 0 0 0 0 0 0 0 0 0 0 0 0 0 0.16 0"/>
<feBlend mode="normal" in2="BackgroundImageFix" result="effect1_dropShadow_14_38"/>
<feBlend mode="normal" in="SourceGraphic" in2="effect1_dropShadow_14_38" result="shape"/>
</filter>
<linearGradient id="paint0_linear_14_38" x1="13.4897" y1="2.0094" x2="13.4897" y2="25.6565" gradientUnits="userSpaceOnUse">
<stop stop-color="#EFB75E"/>
<stop offset="0.490074" stop-color="#B38B40"/>
<stop offset="0.985074" stop-color="#856A31"/>
</linearGradient>
</defs>
</svg>
