<svg width="32" height="32" viewBox="0 0 32 32" fill="none" xmlns="http://www.w3.org/2000/svg">
<g filter="url(#filter0_d_14_44)">
<path d="M10.7315 3.3948C10.7756 3.29209 10.845 3.23431 10.9396 3.22147C11.0341 3.20863 11.1256 3.25036 11.2138 3.34665L13.654 5.85989L15.7158 3.12518C15.7852 3.04173 15.864 3 15.9523 3C16.0405 3 16.1194 3.04173 16.1887 3.12518L18.26 5.85989L20.6812 3.34665C20.7758 3.25036 20.8704 3.20863 20.965 3.22147C21.0596 3.23431 21.1289 3.29209 21.173 3.3948C21.3874 3.90194 21.5482 4.41229 21.6554 4.92585C21.7626 5.43942 21.8162 5.95298 21.8162 6.46654C21.8162 7.33317 21.6743 8.1324 21.3906 8.86423C21.1068 9.58963 20.7033 10.2252 20.18 10.7708C19.6566 11.3101 19.0356 11.7305 18.3168 12.0323C17.6043 12.334 16.8161 12.4848 15.9523 12.4848C15.0884 12.4848 14.2971 12.334 13.5783 12.0323C12.8595 11.7305 12.2385 11.3101 11.7151 10.7708C11.1981 10.2252 10.7945 9.58963 10.5045 8.86423C10.2208 8.1324 10.0789 7.33317 10.0789 6.46654C10.0789 5.95298 10.1325 5.43942 10.2397 4.92585C10.3532 4.41229 10.5171 3.90194 10.7315 3.3948ZM15.6023 22.6341V11.8878H16.3022V22.4511L16.1982 22.3837C16.5134 21.3566 16.9706 20.4194 17.5696 19.572C18.1686 18.7182 18.8811 17.9831 19.7071 17.3669C20.5331 16.7506 21.4442 16.2756 22.4404 15.9417C23.4366 15.6015 24.4833 15.4314 25.5804 15.4314C25.7129 15.4314 25.8043 15.4731 25.8547 15.5566C25.9052 15.6336 25.9083 15.7427 25.8642 15.884C25.5363 16.8983 25.054 17.8387 24.4171 18.7053C23.7803 19.5656 23.0237 20.3166 22.1472 20.9586C21.2708 21.607 20.3061 22.1077 19.2531 22.4608C18.2064 22.8203 17.1061 23 15.9523 23C15.8514 23 15.7663 22.9679 15.6969 22.9037C15.6339 22.8395 15.6023 22.7496 15.6023 22.6341ZM14.7606 20.3134V22.6341C14.7606 22.724 14.7732 22.8203 14.7984 22.923C13.4175 22.7817 12.1376 22.3869 10.9585 21.7386C9.77939 21.0902 8.76424 20.2621 7.91303 19.2542C7.06181 18.2399 6.43443 17.1165 6.0309 15.884C5.98676 15.7427 5.98991 15.6336 6.04035 15.5566C6.0971 15.4731 6.18853 15.4314 6.31463 15.4314C7.51264 15.4314 8.64759 15.6336 9.71949 16.038C10.7977 16.436 11.7656 17.001 12.6231 17.7328C13.4869 18.4582 14.1994 19.3184 14.7606 20.3134Z" fill="url(#paint0_linear_14_44)"/>
</g>
<defs>
<filter id="filter0_d_14_44" x="0" y="0" width="31.8951" height="32" filterUnits="userSpaceOnUse" color-interpolation-filters="sRGB">
<feFlood flood-opacity="0" result="BackgroundImageFix"/>
<feColorMatrix in="SourceAlpha" type="matrix" values="0 0 0 0 0 0 0 0 0 0 0 0 0 0 0 0 0 0 127 0" result="hardAlpha"/>
<feOffset dy="3"/>
<feGaussianBlur stdDeviation="3"/>
<feComposite in2="hardAlpha" operator="out"/>
<feColorMatrix type="matrix" values="0 0 0 0 0 0 0 0 0 0 0 0 0 0 0 0 0 0 0.16 0"/>
<feBlend mode="normal" in2="BackgroundImageFix" result="effect1_dropShadow_14_44"/>
<feBlend mode="normal" in="SourceGraphic" in2="effect1_dropShadow_14_44" result="shape"/>
</filter>
<linearGradient id="paint0_linear_14_44" x1="15.9523" y1="1.01958" x2="15.9523" y2="24.8488" gradientUnits="userSpaceOnUse">
<stop stop-color="#EFB75E"/>
<stop offset="0.490074" stop-color="#B38B40"/>
<stop offset="0.985074" stop-color="#856A31"/>
</linearGradient>
</defs>
</svg>
