<svg width="28" height="18" viewBox="0 0 28 18" fill="none" xmlns="http://www.w3.org/2000/svg">
<path d="M13.7509 17.861C12.4273 17.861 11.1667 17.6898 9.96913 17.3476C8.77858 17.0125 7.67207 16.5668 6.64959 16.0107C5.62711 15.4545 4.70619 14.8449 3.88681 14.1818C3.07443 13.5116 2.3776 12.8414 1.79633 12.1711C1.21506 11.5009 0.770358 10.8806 0.462215 10.3102C0.154072 9.73975 0 9.27986 0 8.93048C0 8.58111 0.154072 8.12121 0.462215 7.5508C0.777361 6.98039 1.22557 6.36007 1.80684 5.68984C2.38811 5.01961 3.08844 4.35294 3.90782 3.68984C4.7272 3.01961 5.64462 2.40642 6.6601 1.85027C7.68257 1.29412 8.78908 0.848485 9.97964 0.513369C11.1772 0.171123 12.4343 0 13.7509 0C15.0745 0 16.3316 0.171123 17.5221 0.513369C18.7127 0.848485 19.8192 1.29412 20.8417 1.85027C21.8642 2.40642 22.7816 3.01961 23.594 3.68984C24.4133 4.35294 25.1137 5.01961 25.6949 5.68984C26.2762 6.36007 26.7209 6.98039 27.0291 7.5508C27.3442 8.12121 27.5018 8.58111 27.5018 8.93048C27.5018 9.27986 27.3477 9.73975 27.0396 10.3102C26.7314 10.8806 26.2867 11.5009 25.7054 12.1711C25.1312 12.8414 24.4344 13.5116 23.615 14.1818C22.8026 14.8449 21.8852 15.4545 20.8627 16.0107C19.8472 16.5668 18.7407 17.0125 17.5432 17.3476C16.3456 17.6898 15.0815 17.861 13.7509 17.861ZM13.7509 14.7914C14.5423 14.7914 15.2881 14.6417 15.9884 14.3422C16.6888 14.0357 17.305 13.6114 17.8373 13.0695C18.3695 12.5276 18.7862 11.9037 19.0874 11.1979C19.3885 10.4848 19.5391 9.72906 19.5391 8.93048C19.5391 8.11765 19.3885 7.35829 19.0874 6.65241C18.7862 5.93939 18.3695 5.31551 17.8373 4.78075C17.305 4.23886 16.6888 3.81818 15.9884 3.51872C15.2881 3.21925 14.5423 3.06952 13.7509 3.06952C12.9525 3.06952 12.2032 3.21925 11.5028 3.51872C10.8025 3.81818 10.1862 4.23886 9.65399 4.78075C9.12174 5.31551 8.70505 5.93939 8.40391 6.65241C8.10977 7.35829 7.9627 8.11765 7.9627 8.93048C7.9697 9.72906 8.12378 10.4848 8.42492 11.1979C8.72606 11.9037 9.13925 12.5276 9.66449 13.0695C10.1967 13.6114 10.8095 14.0357 11.5028 14.3422C12.2032 14.6417 12.9525 14.7914 13.7509 14.7914ZM13.7719 10.7594C13.2607 10.7594 12.8265 10.5811 12.4693 10.2246C12.1121 9.86809 11.9335 9.43672 11.9335 8.93048C11.9335 8.42424 12.1121 7.99287 12.4693 7.63636C12.8265 7.27273 13.2607 7.09091 13.7719 7.09091C14.2621 7.09091 14.6858 7.27273 15.043 7.63636C15.4002 7.99287 15.5787 8.42424 15.5787 8.93048C15.5787 9.43672 15.4002 9.86809 15.043 10.2246C14.6858 10.5811 14.2621 10.7594 13.7719 10.7594Z" fill="url(#paint0_linear_177_63726)"/>
<defs>
<linearGradient id="paint0_linear_177_63726" x1="13.7509" y1="0" x2="13.7509" y2="17.861" gradientUnits="userSpaceOnUse">
<stop stop-color="#EFB75E"/>
<stop offset="0.490074" stop-color="#B38B40"/>
<stop offset="0.985074" stop-color="#856A31"/>
</linearGradient>
</defs>
</svg>
