<svg width="39" height="36" viewBox="0 0 39 36" fill="none" xmlns="http://www.w3.org/2000/svg">
<g filter="url(#filter0_d_14_21)">
<path d="M22.1907 26.1292V17.8509C22.1907 17.6362 22.1267 17.4652 21.9985 17.338C21.8704 17.2107 21.6983 17.1471 21.4821 17.1471H16.9299C16.7137 17.1471 16.5376 17.2107 16.4015 17.338C16.2733 17.4652 16.2093 17.6362 16.2093 17.8509V26.1292H22.1907ZM9.03876 24.8648V13.6044L18.4433 5.75547C18.9558 5.334 19.4682 5.334 19.9807 5.75547L29.4213 13.6282V24.8648C29.4213 25.5408 29.2291 26.0656 28.8448 26.4394C28.4684 26.8131 27.9399 27 27.2593 27H11.2007C10.5201 27 9.98763 26.8131 9.60328 26.4394C9.22693 26.0656 9.03876 25.5408 9.03876 24.8648ZM6 13.7833C6 13.6322 6.06806 13.497 6.20419 13.3777L18.143 3.44135C18.4954 3.14712 18.8597 3 19.236 3C19.6204 3 19.9807 3.14712 20.317 3.44135L32.1958 13.3777C32.3319 13.497 32.4 13.6362 32.4 13.7952C32.4 13.9145 32.356 14.0139 32.2679 14.0934C32.1878 14.165 32.0837 14.2008 31.9556 14.2008C31.8755 14.2008 31.8075 14.1849 31.7514 14.1531C31.7034 14.1213 31.6513 14.0855 31.5953 14.0457L19.7645 4.14513C19.5723 3.97813 19.3842 3.90258 19.2 3.91849C19.0238 3.92644 18.8557 4.00199 18.6955 4.14513L6.81674 14.0457C6.76069 14.0855 6.70464 14.1213 6.64859 14.1531C6.60055 14.1849 6.53649 14.2008 6.45641 14.2008C6.32029 14.2008 6.20819 14.161 6.12011 14.0815C6.04004 13.994 6 13.8946 6 13.7833ZM27.4635 9.89463V6.10139C27.4635 5.94235 27.5116 5.81511 27.6076 5.71968C27.7037 5.62425 27.8278 5.57654 27.98 5.57654H28.9048C29.049 5.57654 29.1691 5.62425 29.2652 5.71968C29.3692 5.81511 29.4213 5.94235 29.4213 6.10139V11.5408L27.4635 9.89463Z" fill="#027884"/>
</g>
<defs>
<filter id="filter0_d_14_21" x="0" y="0" width="38.4" height="36" filterUnits="userSpaceOnUse" color-interpolation-filters="sRGB">
<feFlood flood-opacity="0" result="BackgroundImageFix"/>
<feColorMatrix in="SourceAlpha" type="matrix" values="0 0 0 0 0 0 0 0 0 0 0 0 0 0 0 0 0 0 127 0" result="hardAlpha"/>
<feOffset dy="3"/>
<feGaussianBlur stdDeviation="3"/>
<feComposite in2="hardAlpha" operator="out"/>
<feColorMatrix type="matrix" values="0 0 0 0 0 0 0 0 0 0 0 0 0 0 0 0 0 0 0.16 0"/>
<feBlend mode="normal" in2="BackgroundImageFix" result="effect1_dropShadow_14_21"/>
<feBlend mode="normal" in="SourceGraphic" in2="effect1_dropShadow_14_21" result="shape"/>
</filter>
</defs>
</svg>
