<svg width="20" height="17" viewBox="0 0 20 17" fill="none" xmlns="http://www.w3.org/2000/svg">
<path d="M0 5.41458C0 4.61859 0.140315 3.89048 0.420945 3.23024C0.701574 2.57 1.09514 1.99923 1.60164 1.51793C2.11499 1.03047 2.71389 0.657155 3.39836 0.397995C4.08966 0.132665 4.83915 0 5.64682 0C6.57084 0 7.41615 0.20054 8.18275 0.60162C8.95619 0.99653 9.56194 1.5241 10 2.18434C10.4381 1.5241 11.0404 0.99653 11.807 0.60162C12.5736 0.20054 13.4189 0 14.3429 0C15.1574 0 15.9069 0.132665 16.5914 0.397995C17.2827 0.657155 17.8816 1.03047 18.3881 1.51793C18.8946 1.99923 19.2882 2.57 19.5688 3.23024C19.8563 3.89048 20 4.61859 20 5.41458C20 6.69804 19.6099 7.96915 18.8296 9.22793C18.0493 10.4867 16.9576 11.7146 15.5544 12.9117C14.1513 14.1088 12.5086 15.2534 10.6263 16.3456C10.5373 16.4011 10.4312 16.4505 10.308 16.4937C10.1916 16.5368 10.089 16.5584 10 16.5584C9.91102 16.5584 9.80493 16.5368 9.68173 16.4937C9.56537 16.4505 9.4627 16.4011 9.37372 16.3456C7.49144 15.2534 5.84531 14.1088 4.43532 12.9117C3.03217 11.7146 1.94045 10.4867 1.16016 9.22793C0.386721 7.96915 0 6.69804 0 5.41458ZM1.26283 5.41458C1.26283 6.27845 1.49213 7.15157 1.95072 8.03395C2.40931 8.91015 3.03901 9.77402 3.83984 10.6255C4.64066 11.4771 5.55441 12.2977 6.58111 13.0876C7.6078 13.8712 8.68925 14.5993 9.82546 15.2719C9.91444 15.3336 9.97262 15.3645 10 15.3645C10.0274 15.3645 10.089 15.3336 10.1848 15.2719C11.3142 14.5993 12.3922 13.8712 13.4189 13.0876C14.4524 12.2977 15.3662 11.4771 16.1602 10.6255C16.9541 9.77402 17.5804 8.91015 18.039 8.03395C18.5044 7.15157 18.7372 6.27845 18.7372 5.41458C18.7372 4.56306 18.5455 3.81643 18.1622 3.1747C17.7858 2.53298 17.2656 2.03317 16.6016 1.67528C15.9446 1.31739 15.1985 1.13845 14.3635 1.13845C13.7269 1.13845 13.1691 1.24335 12.6899 1.45314C12.2177 1.65677 11.807 1.9221 11.4579 2.24913C11.1088 2.57617 10.8111 2.91554 10.5647 3.26726C10.4483 3.41535 10.3491 3.51716 10.2669 3.5727C10.1916 3.62823 10.1027 3.656 10 3.656C9.89733 3.656 9.80493 3.62823 9.72279 3.5727C9.64066 3.51716 9.54141 3.41535 9.42505 3.26726C9.19233 2.90937 8.90144 2.57 8.55236 2.24913C8.20329 1.9221 7.78576 1.65677 7.2998 1.45314C6.82067 1.24335 6.26626 1.13845 5.63655 1.13845C4.79466 1.13845 4.04175 1.31739 3.37782 1.67528C2.72074 2.03317 2.20397 2.53298 1.82752 3.1747C1.45106 3.81643 1.26283 4.56306 1.26283 5.41458Z" fill="#616161"/>
</svg>
