<svg width="21" height="20" viewBox="0 0 21 20" fill="none" xmlns="http://www.w3.org/2000/svg">
<path d="M9.65122 6.12751C10.3648 6.18536 10.9594 6.32356 11.4351 6.54211C11.9108 6.76067 12.3287 7.05314 12.6887 7.41954C13.4408 8.16519 13.939 8.98797 14.1833 9.8879C14.4276 10.7878 14.4244 11.6877 14.1737 12.5877C13.923 13.4812 13.428 14.2975 12.6887 15.0367L9.40051 18.3343C8.66766 19.0671 7.85125 19.5588 6.95126 19.8095C6.0577 20.0602 5.16092 20.0634 4.26094 19.8192C3.36095 19.5749 2.53167 19.0735 1.77311 18.315C1.02741 17.5694 0.5292 16.7466 0.278489 15.8467C0.0342062 14.9467 0.0374205 14.05 0.288132 13.1565C0.538843 12.2566 1.03384 11.437 1.77311 10.6978L4.81057 7.66059C4.75272 7.92414 4.73664 8.1909 4.76236 8.46088C4.78807 8.73085 4.85236 8.97512 4.95521 9.19367L2.68917 11.4595C2.10418 12.0445 1.71204 12.6905 1.51276 13.3976C1.3199 14.0982 1.31669 14.8021 1.50312 15.5092C1.69597 16.2163 2.08168 16.8623 2.66024 17.4472C3.23881 18.0193 3.87844 18.3986 4.57915 18.585C5.28628 18.7778 5.99341 18.7746 6.70055 18.5754C7.40768 18.3825 8.05374 17.9936 8.63874 17.4087L11.7823 14.275C12.3673 13.6901 12.7562 13.0473 12.949 12.3466C13.1419 11.6395 13.1419 10.9324 12.949 10.2254C12.7562 9.51828 12.3737 8.87548 11.8016 8.29696C11.4287 7.92414 10.9916 7.6413 10.4901 7.44846C9.98872 7.2492 9.3748 7.14635 8.64838 7.13992L9.65122 6.12751ZM10.5191 13.8797C9.80551 13.8218 9.21087 13.6836 8.73516 13.4651C8.25946 13.2465 7.8416 12.9541 7.48161 12.5877C6.72948 11.842 6.23127 11.0192 5.98699 10.1193C5.7427 9.21938 5.7427 8.32267 5.98699 7.42918C6.2377 6.52926 6.73269 5.70969 7.47197 4.97046L10.7601 1.67289C11.4994 0.933669 12.3158 0.438712 13.2094 0.188019C14.1094 -0.0626732 15.0094 -0.0626732 15.9094 0.188019C16.8093 0.432284 17.6354 0.930455 18.3875 1.68253C19.1397 2.43461 19.6379 3.26061 19.8822 4.16053C20.1264 5.06046 20.1232 5.95716 19.8725 6.85066C19.6218 7.74415 19.13 8.56051 18.3972 9.29973L15.3501 12.337C15.4079 12.0798 15.424 11.8163 15.3983 11.5463C15.379 11.2763 15.3179 11.0289 15.2151 10.8039L17.4811 8.54765C18.0661 7.9627 18.455 7.31669 18.6479 6.60961C18.8472 5.90253 18.8504 5.19866 18.6575 4.498C18.4647 3.79092 18.079 3.14812 17.5004 2.5696C16.9218 1.98465 16.279 1.59897 15.5719 1.41256C14.8712 1.22614 14.1672 1.23257 13.4601 1.43184C12.7594 1.62468 12.1133 2.01036 11.5219 2.58888L8.38803 5.73218C7.80303 6.3107 7.4109 6.95351 7.21161 7.66059C7.01876 8.36767 7.01554 9.07475 7.20197 9.78183C7.39482 10.4825 7.78375 11.1253 8.36874 11.7102C8.74159 12.0831 9.17873 12.3691 9.68015 12.5684C10.1816 12.7612 10.7955 12.8609 11.5219 12.8673L10.5191 13.8797Z" fill="#313131"/>
</svg>
