<svg width="24" height="24" viewBox="0 0 24 24" fill="none" xmlns="http://www.w3.org/2000/svg">
<path d="M11.9939 24C10.3457 24 8.79551 23.6857 7.34319 23.0571C5.89903 22.4367 4.62621 21.5755 3.52473 20.4735C2.42325 19.3714 1.55839 18.098 0.930138 16.6531C0.310046 15.2 0 13.649 0 12C0 10.351 0.310046 8.80408 0.930138 7.35918C1.55839 5.90612 2.42325 4.62857 3.52473 3.52653C4.62621 2.42449 5.89903 1.56327 7.34319 0.942857C8.79551 0.314286 10.3457 0 11.9939 0C13.642 0 15.1882 0.314286 16.6323 0.942857C18.0847 1.56327 19.3615 2.42449 20.463 3.52653C21.5645 4.62857 22.4294 5.90612 23.0576 7.35918C23.6859 8.80408 24 10.351 24 12C24 13.649 23.6859 15.2 23.0576 16.6531C22.4294 18.098 21.5645 19.3714 20.463 20.4735C19.3615 21.5755 18.0887 22.4367 16.6446 23.0571C15.2004 23.6857 13.6502 24 11.9939 24ZM11.9939 23.0694C13.5278 23.0694 14.9638 22.7837 16.3019 22.2122C17.64 21.6408 18.8149 20.849 19.8266 19.8367C20.8465 18.8163 21.642 17.6367 22.2132 16.298C22.7843 14.9592 23.0699 13.5265 23.0699 12C23.0699 10.4735 22.7843 9.04082 22.2132 7.70204C21.642 6.36327 20.8465 5.18367 19.8266 4.16327C18.8067 3.14286 17.6277 2.34694 16.2896 1.77551C14.9597 1.20408 13.5278 0.918367 11.9939 0.918367C10.4681 0.918367 9.03621 1.20408 7.69811 1.77551C6.36002 2.34694 5.18103 3.14286 4.16114 4.16327C3.14941 5.18367 2.35798 6.36327 1.78684 7.70204C1.21571 9.04082 0.930138 10.4735 0.930138 12C0.930138 13.5265 1.21571 14.9592 1.78684 16.298C2.35798 17.6367 3.14941 18.8163 4.16114 19.8367C5.18103 20.849 6.36002 21.6408 7.69811 22.2122C9.03621 22.7837 10.4681 23.0694 11.9939 23.0694ZM7.52677 16.9224V11.8286C7.52677 10.8898 7.96736 10.4122 8.84855 10.3959V8.65714C8.84855 7.63673 9.13819 6.81633 9.71749 6.19592C10.2968 5.56735 11.0556 5.25306 11.9939 5.25306C12.9403 5.25306 13.7032 5.56735 14.2825 6.19592C14.8618 6.81633 15.1515 7.63673 15.1515 8.65714V10.3959C16.0326 10.4122 16.4732 10.8898 16.4732 11.8286V16.9224C16.4732 17.8857 16.0204 18.3673 15.1147 18.3673H8.87302C7.97552 18.3673 7.52677 17.8857 7.52677 16.9224ZM9.60734 10.3959H14.3927V8.62041C14.3927 7.83673 14.1724 7.20408 13.7318 6.72245C13.2912 6.24082 12.7119 6 11.9939 6C11.2759 6 10.6966 6.24082 10.256 6.72245C9.82356 7.20408 9.60734 7.83673 9.60734 8.62041V10.3959Z" fill="#856A31"/>
</svg>
