<svg width="24" height="24" viewBox="0 0 24 24" fill="none" xmlns="http://www.w3.org/2000/svg">
<path d="M12 24C10.3569 24 8.80957 23.6849 7.35793 23.0548C5.91426 22.4327 4.63809 21.5713 3.52941 20.4706C2.42871 19.3619 1.56331 18.0857 0.9332 16.6421C0.311067 15.1904 0 13.6431 0 12C0 10.3569 0.311067 8.81356 0.9332 7.36989C1.56331 5.91825 2.42871 4.64207 3.52941 3.54138C4.63011 2.4327 5.90229 1.5673 7.34596 0.945165C8.79761 0.315055 10.345 0 11.988 0C13.6311 0 15.1785 0.315055 16.6301 0.945165C18.0818 1.5673 19.3579 2.4327 20.4586 3.54138C21.5593 4.64207 22.4247 5.91825 23.0548 7.36989C23.6849 8.81356 24 10.3569 24 12C24 13.6431 23.6849 15.1904 23.0548 16.6421C22.4247 18.0857 21.5593 19.3619 20.4586 20.4706C19.3579 21.5713 18.0818 22.4327 16.6301 23.0548C15.1864 23.6849 13.6431 24 12 24ZM12 22.4566C13.4437 22.4566 14.7996 22.1854 16.0678 21.6431C17.336 21.1007 18.4487 20.3509 19.4058 19.3938C20.3629 18.4367 21.1087 17.328 21.6431 16.0678C22.1854 14.7996 22.4566 13.4437 22.4566 12C22.4566 10.5563 22.1854 9.20439 21.6431 7.94417C21.1007 6.67597 20.347 5.56331 19.3819 4.60618C18.4247 3.64108 17.3161 2.89133 16.0558 2.35693C14.7956 1.81456 13.4397 1.54337 11.988 1.54337C10.5444 1.54337 9.18843 1.81456 7.92024 2.35693C6.66002 2.89133 5.55135 3.64108 4.59422 4.60618C3.64506 5.56331 2.8993 6.67597 2.35693 7.94417C1.82253 9.20439 1.55533 10.5563 1.55533 12C1.55533 13.4437 1.82253 14.7996 2.35693 16.0678C2.8993 17.328 3.64905 18.4367 4.60618 19.3938C5.56331 20.3509 6.67198 21.1007 7.9322 21.6431C9.19242 22.1854 10.5484 22.4566 12 22.4566ZM8.94915 8.53041C8.78963 8.53041 8.65005 8.47458 8.53041 8.36291C8.41874 8.24327 8.36291 8.10369 8.36291 7.94417C8.36291 7.78465 8.41874 7.64905 8.53041 7.53739C8.64207 7.42572 8.78166 7.36989 8.94915 7.36989H18.2692C18.4287 7.36989 18.5643 7.42572 18.676 7.53739C18.7876 7.64108 18.8435 7.77667 18.8435 7.94417C18.8435 8.11166 18.7876 8.25125 18.676 8.36291C18.5643 8.47458 18.4287 8.53041 18.2692 8.53041H8.94915ZM8.94915 16.6181C8.78166 16.6181 8.64207 16.5623 8.53041 16.4506C8.41874 16.339 8.36291 16.1994 8.36291 16.0319C8.36291 15.8724 8.41874 15.7368 8.53041 15.6251C8.65005 15.5135 8.78963 15.4576 8.94915 15.4576H18.2692C18.4287 15.4576 18.5643 15.5135 18.676 15.6251C18.7876 15.7288 18.8435 15.8644 18.8435 16.0319C18.8435 16.1994 18.7876 16.339 18.676 16.4506C18.5643 16.5623 18.4287 16.6181 18.2692 16.6181H8.94915ZM8.94915 12.5743C8.78963 12.5743 8.65005 12.5184 8.53041 12.4068C8.41874 12.2871 8.36291 12.1476 8.36291 11.988C8.36291 11.8285 8.41874 11.6929 8.53041 11.5813C8.65005 11.4696 8.78963 11.4138 8.94915 11.4138H18.2692C18.4287 11.4138 18.5643 11.4696 18.676 11.5813C18.7876 11.6849 18.8435 11.8205 18.8435 11.988C18.8435 12.1555 18.7876 12.2951 18.676 12.4068C18.5643 12.5184 18.4287 12.5743 18.2692 12.5743H8.94915ZM6.08973 8.92522C5.81057 8.92522 5.57527 8.82951 5.38385 8.63809C5.2004 8.44666 5.10867 8.21535 5.10867 7.94417C5.10867 7.67298 5.2004 7.44168 5.38385 7.25025C5.57527 7.05882 5.81057 6.96311 6.08973 6.96311C6.36092 6.96311 6.58824 7.05882 6.77169 7.25025C6.96311 7.44168 7.05882 7.67298 7.05882 7.94417C7.05882 8.20738 6.96311 8.43868 6.77169 8.63809C6.58026 8.82951 6.35294 8.92522 6.08973 8.92522ZM6.08973 12.9691C5.81057 12.9691 5.57527 12.8734 5.38385 12.682C5.2004 12.4905 5.10867 12.2592 5.10867 11.988C5.10867 11.7168 5.2004 11.4855 5.38385 11.2941C5.57527 11.1027 5.81057 11.007 6.08973 11.007C6.35294 11.007 6.58026 11.1067 6.77169 11.3061C6.96311 11.4975 7.05882 11.7248 7.05882 11.988C7.05882 12.2512 6.96311 12.4826 6.77169 12.682C6.58026 12.8734 6.35294 12.9691 6.08973 12.9691ZM6.08973 17.013C5.81057 17.013 5.57527 16.9172 5.38385 16.7258C5.2004 16.5344 5.10867 16.3031 5.10867 16.0319C5.10867 15.7607 5.2004 15.5294 5.38385 15.338C5.57527 15.1466 5.81057 15.0508 6.08973 15.0508C6.35294 15.0508 6.58026 15.1505 6.77169 15.35C6.96311 15.5414 7.05882 15.7687 7.05882 16.0319C7.05882 16.3031 6.96311 16.5344 6.77169 16.7258C6.58824 16.9172 6.36092 17.013 6.08973 17.013Z" fill="#616161"/>
</svg>
