<svg width="24" height="25" viewBox="0 0 24 25" fill="none" xmlns="http://www.w3.org/2000/svg">
<path d="M11.9939 24.0321C10.3457 24.0321 8.79551 23.7183 7.34319 23.0907C5.89903 22.4713 4.62621 21.6114 3.52473 20.5111C2.42325 19.4107 1.55839 18.1392 0.930138 16.6966C0.310046 15.2458 0 13.6972 0 12.0507C0 10.4043 0.310046 8.85977 0.930138 7.41711C1.55839 5.9663 2.42325 4.69073 3.52473 3.5904C4.62621 2.49007 5.89903 1.63018 7.34319 1.01073C8.79551 0.383134 10.3457 0.0693359 11.9939 0.0693359C13.642 0.0693359 15.1882 0.383134 16.6323 1.01073C18.0847 1.63018 19.3616 2.49007 20.463 3.5904C21.5645 4.69073 22.4294 5.9663 23.0576 7.41711C23.6859 8.85977 24 10.4043 24 12.0507C24 13.6972 23.6859 15.2458 23.0576 16.6966C22.4294 18.1392 21.5645 19.4107 20.463 20.5111C19.3616 21.6114 18.0887 22.4713 16.6446 23.0907C15.2004 23.7183 13.6502 24.0321 11.9939 24.0321ZM11.9939 23.103C13.5278 23.103 14.9638 22.8177 16.3019 22.2471C17.64 21.6766 18.8149 20.886 19.8266 19.8753C20.8465 18.8565 21.642 17.6787 22.2132 16.342C22.7843 15.0053 23.0699 13.5749 23.0699 12.0507C23.0699 10.5266 22.7843 9.09614 22.2132 7.75944C21.642 6.42274 20.8465 5.24497 19.8266 4.22615C18.8067 3.20732 17.6277 2.41264 16.2896 1.84209C14.9597 1.27155 13.5278 0.986279 11.9939 0.986279C10.4681 0.986279 9.03621 1.27155 7.69811 1.84209C6.36002 2.41264 5.18103 3.20732 4.16114 4.22615C3.14941 5.24497 2.35798 6.42274 1.78684 7.75944C1.21571 9.09614 0.930138 10.5266 0.930138 12.0507C0.930138 13.5749 1.21571 15.0053 1.78684 16.342C2.35798 17.6787 3.14941 18.8565 4.16114 19.8753C5.18103 20.886 6.36002 21.6766 7.69811 22.2471C9.03621 22.8177 10.4681 23.103 11.9939 23.103ZM9.08108 19.5574C8.97501 19.5574 8.88118 19.5208 8.79959 19.4474C8.72616 19.3741 8.68944 19.2844 8.68944 19.1784C8.68944 19.0725 8.72616 18.9828 8.79959 18.9095C8.88118 18.8361 8.97501 18.7994 9.08108 18.7994H11.6145V16.7333C10.8067 16.6844 10.0928 16.4684 9.47272 16.0853C8.86079 15.7022 8.3794 15.1969 8.02856 14.5693C7.68587 13.9335 7.51453 13.2244 7.51453 12.442V11.1582C7.51453 11.0523 7.55125 10.9626 7.62468 10.8893C7.69811 10.8159 7.78786 10.7792 7.89393 10.7792C8 10.7792 8.08975 10.8159 8.16318 10.8893C8.23661 10.9626 8.27333 11.0523 8.27333 11.1582V12.442C8.27333 13.1674 8.42427 13.799 8.72616 14.337C9.02805 14.8668 9.4564 15.2784 10.0112 15.5718C10.566 15.8652 11.2269 16.0119 11.9939 16.0119C12.769 16.0119 13.434 15.8652 13.9888 15.5718C14.5518 15.2784 14.9801 14.8668 15.2738 14.337C15.5757 13.799 15.7267 13.1674 15.7267 12.442V11.1582C15.7267 11.0523 15.7634 10.9626 15.8368 10.8893C15.9184 10.8159 16.0122 10.7792 16.1183 10.7792C16.2244 10.7792 16.3141 10.8159 16.3876 10.8893C16.461 10.9626 16.4977 11.0523 16.4977 11.1582V12.442C16.4977 13.2244 16.3223 13.9294 15.9714 14.557C15.6288 15.1846 15.1433 15.6941 14.515 16.0853C13.895 16.4684 13.1851 16.6844 12.3855 16.7333V18.7994H14.9189C15.025 18.7994 15.1147 18.8361 15.1882 18.9095C15.2698 18.9828 15.3106 19.0725 15.3106 19.1784C15.3106 19.2844 15.2698 19.3741 15.1882 19.4474C15.1147 19.5208 15.025 19.5574 14.9189 19.5574H9.08108ZM11.9939 14.4226C11.3738 14.4226 10.8802 14.2106 10.513 13.7868C10.1458 13.363 9.96227 12.8332 9.96227 12.1974V6.80581C9.96227 6.17822 10.1458 5.6525 10.513 5.22867C10.8802 4.80484 11.3738 4.59292 11.9939 4.59292C12.6221 4.59292 13.1198 4.80484 13.487 5.22867C13.8542 5.6525 14.0377 6.17822 14.0377 6.80581V12.1974C14.0377 12.8332 13.8542 13.363 13.487 13.7868C13.1198 14.2106 12.6221 14.4226 11.9939 14.4226Z" fill="#00474D"/>
</svg>
