<svg width="22" height="16" viewBox="0 0 22 16" fill="none" xmlns="http://www.w3.org/2000/svg">
<path d="M12.1094 16C11.86 16 11.6676 15.9297 11.5322 15.789C11.3968 15.6483 11.3292 15.4771 11.3292 15.2752V11.4128H10.8803C9.24145 11.4128 7.81997 11.5474 6.6158 11.8165C5.41163 12.0856 4.39272 12.5168 3.55906 13.1101C2.72541 13.7034 2.05564 14.4862 1.54974 15.4587C1.44286 15.6667 1.32173 15.8073 1.18635 15.8807C1.0581 15.9602 0.904907 16 0.726776 16C0.527269 16 0.356263 15.9327 0.213758 15.7982C0.0712525 15.6636 0 15.4801 0 15.2477C0 13.419 0.249384 11.841 0.748152 10.5138C1.25404 9.18043 1.98082 8.08257 2.92848 7.22018C3.87614 6.3578 5.01974 5.71865 6.35929 5.30275C7.69884 4.88073 9.20583 4.66972 10.8803 4.66972H11.3292V0.733945C11.3292 0.53211 11.3968 0.360856 11.5322 0.220183C11.6676 0.0733945 11.86 0 12.1094 0C12.2875 0 12.4443 0.0336391 12.5796 0.100917C12.7221 0.168196 12.8646 0.259939 13.0071 0.376147L21.3864 7.06422C21.6501 7.27217 21.814 7.44954 21.8781 7.59633C21.9493 7.737 21.985 7.87156 21.985 8C21.985 8.12844 21.9493 8.26605 21.8781 8.41284C21.8068 8.55352 21.643 8.72783 21.3864 8.93578L13.0071 15.633C12.8718 15.7431 12.7293 15.8318 12.5796 15.8991C12.4371 15.9664 12.2804 16 12.1094 16ZM12.2911 15.1743C12.3694 15.1743 12.4621 15.1315 12.5689 15.0459L20.82 8.47706C20.9482 8.37309 21.0337 8.2844 21.0765 8.21101C21.1193 8.13761 21.1406 8.06728 21.1406 8C21.1406 7.85933 21.0337 7.70031 20.82 7.52294L12.5903 0.93578C12.5476 0.905199 12.5013 0.877676 12.4514 0.853211C12.4086 0.82263 12.3588 0.807339 12.3017 0.807339C12.1806 0.807339 12.1201 0.862385 12.1201 0.972477V5.07339C12.1201 5.23853 12.0203 5.3211 11.8208 5.3211H10.9658C9.65472 5.3211 8.46124 5.4526 7.38532 5.7156C6.30941 5.97859 5.35819 6.37309 4.53166 6.89908C3.71226 7.42508 3.01754 8.07951 2.44752 8.86238C1.88463 9.64526 1.45711 10.5535 1.16498 11.5872C0.872843 12.6147 0.723213 13.7706 0.716088 15.055C0.716088 15.1529 0.762402 15.2018 0.85503 15.2018C0.904907 15.2018 0.944096 15.1835 0.972597 15.1468C1.0011 15.1101 1.0296 15.0642 1.0581 15.0092C1.74925 13.5474 2.91067 12.474 4.54235 11.789C6.18116 11.0979 8.3223 10.7523 10.9658 10.7523H11.8208C12.0203 10.7523 12.1201 10.8379 12.1201 11.0092V14.9908C12.1201 15.1131 12.1771 15.1743 12.2911 15.1743Z" fill="white"/>
</svg>
