<svg width="19" height="20" viewBox="0 0 19 20" fill="none" xmlns="http://www.w3.org/2000/svg">
<path d="M0 15.6974C0 15.3635 0.091683 15.0458 0.275049 14.7446C0.458415 14.4368 0.684348 14.1388 0.952849 13.8507C1.2279 13.556 1.50295 13.2646 1.778 12.9764C2.03995 12.6883 2.23641 12.315 2.36739 11.8566C2.49836 11.3916 2.59332 10.8939 2.65226 10.3635C2.7112 9.83301 2.77014 9.30583 2.82908 8.78193C2.87492 7.66863 3.02554 6.67649 3.28094 5.8055C3.54289 4.93451 3.93255 4.20432 4.4499 3.61493C4.96726 3.02554 5.64178 2.59659 6.47348 2.32809C6.611 1.66667 6.91552 1.11984 7.38703 0.687623C7.86509 0.255403 8.44466 0.0392927 9.12574 0.0392927C9.54486 0.0392927 9.93779 0.130976 10.3045 0.314342C10.1801 0.458415 10.0655 0.612312 9.96071 0.776031C9.86248 0.933202 9.77079 1.09692 9.68566 1.26719C9.53504 1.19515 9.3484 1.15914 9.12574 1.15914C8.64768 1.15914 8.26785 1.32613 7.98625 1.66012C7.7112 1.99411 7.55403 2.41323 7.51473 2.91749C7.50164 3.05501 7.45252 3.15979 7.36739 3.23183C7.2888 3.30386 7.18075 3.35625 7.04322 3.389C6.46693 3.54617 5.96267 3.82449 5.53045 4.22397C5.10478 4.62345 4.76097 5.20301 4.49902 5.96267C4.24361 6.71578 4.08317 7.69483 4.01768 8.8998C3.97184 9.41716 3.92272 9.91159 3.87033 10.3831C3.81794 10.8546 3.74918 11.2967 3.66405 11.7092C3.57891 12.1218 3.46431 12.4951 3.32024 12.8291C3.18271 13.1631 3.00262 13.4512 2.77996 13.6935C2.59005 13.8965 2.40013 14.1028 2.21022 14.3124C2.0203 14.5219 1.85331 14.7217 1.70923 14.9116C1.57171 15.1015 1.4833 15.262 1.44401 15.3929V15.501H16.8075V15.3929C16.7682 15.262 16.6765 15.1015 16.5324 14.9116C16.3949 14.7217 16.2312 14.5219 16.0413 14.3124C15.8513 14.1028 15.6614 13.8965 15.4715 13.6935C15.2423 13.4512 15.0589 13.1631 14.9214 12.8291C14.7839 12.4951 14.6726 12.1218 14.5874 11.7092C14.5023 11.2967 14.4335 10.8546 14.3811 10.3831C14.3287 9.91159 14.2796 9.41716 14.2338 8.8998C14.2141 8.6313 14.1912 8.3759 14.165 8.1336C14.1454 7.89129 14.1225 7.65881 14.0963 7.43615C14.2796 7.4296 14.4761 7.40668 14.6857 7.36739C14.9018 7.32155 15.0982 7.26588 15.275 7.20039C15.3143 7.44925 15.3438 7.70792 15.3635 7.97642C15.3897 8.23838 15.4126 8.50688 15.4322 8.78193C15.4846 9.30583 15.5403 9.83301 15.5992 10.3635C15.6582 10.8939 15.7531 11.3916 15.8841 11.8566C16.0151 12.315 16.2148 12.6883 16.4833 12.9764C16.7518 13.2646 17.0236 13.556 17.2986 13.8507C17.5737 14.1388 17.7996 14.4368 17.9764 14.7446C18.1598 15.0458 18.2515 15.3635 18.2515 15.6974C18.2515 15.9856 18.15 16.2148 17.947 16.3851C17.7439 16.5553 17.4656 16.6405 17.112 16.6405H12.4656C12.446 17.2626 12.2888 17.8258 11.9941 18.3301C11.706 18.8343 11.313 19.2371 10.8153 19.5383C10.3242 19.8461 9.76097 20 9.12574 20C8.4905 20 7.92403 19.8461 7.42633 19.5383C6.93517 19.2371 6.54551 18.8343 6.25737 18.3301C5.96922 17.8258 5.81532 17.2626 5.79568 16.6405H1.13949C0.785855 16.6405 0.507531 16.5553 0.304519 16.3851C0.101506 16.2148 0 15.9856 0 15.6974ZM6.96464 16.6405C7.00393 17.3412 7.22331 17.8946 7.62279 18.3006C8.02227 18.7132 8.52325 18.9195 9.12574 18.9195C9.73477 18.9195 10.2358 18.7132 10.6287 18.3006C11.0282 17.8946 11.2475 17.3412 11.2868 16.6405H6.96464ZM13.5462 6.4833C12.9502 6.4833 12.4067 6.33923 11.9155 6.05108C11.4309 5.75639 11.0413 5.36346 10.7466 4.8723C10.4519 4.37459 10.3045 3.83104 10.3045 3.24165C10.3045 2.64571 10.4519 2.10216 10.7466 1.611C11.0413 1.11984 11.4309 0.73019 11.9155 0.442043C12.4067 0.147348 12.9502 0 13.5462 0C14.1356 0 14.6758 0.147348 15.167 0.442043C15.6582 0.73019 16.0511 1.11984 16.3458 1.611C16.6405 2.10216 16.7878 2.64571 16.7878 3.24165C16.7878 3.83104 16.6405 4.37459 16.3458 4.8723C16.0511 5.36346 15.6582 5.75639 15.167 6.05108C14.6758 6.33923 14.1356 6.4833 13.5462 6.4833Z" fill="#313131"/>
</svg>
