<svg width="25" height="24" viewBox="0 0 25 24" fill="none" xmlns="http://www.w3.org/2000/svg">
<path d="M12 24C10.351 24 8.8 23.6857 7.34694 23.0571C5.90204 22.4367 4.62857 21.5755 3.52653 20.4735C2.42449 19.3714 1.55918 18.098 0.930612 16.6531C0.310204 15.2 0 13.649 0 12C0 10.351 0.310204 8.80408 0.930612 7.35918C1.55918 5.90612 2.42449 4.62857 3.52653 3.52653C4.62857 2.42449 5.90204 1.56327 7.34694 0.942857C8.8 0.314286 10.351 0 12 0C13.649 0 15.1959 0.314286 16.6408 0.942857C18.0939 1.56327 19.3714 2.42449 20.4735 3.52653C21.5755 4.62857 22.4408 5.90612 23.0694 7.35918C23.698 8.80408 24.0122 10.351 24.0122 12C24.0122 13.649 23.698 15.2 23.0694 16.6531C22.4408 18.098 21.5755 19.3714 20.4735 20.4735C19.3714 21.5755 18.098 22.4367 16.6531 23.0571C15.2082 23.6857 13.6571 24 12 24ZM12 23.0694C13.5347 23.0694 14.9714 22.7837 16.3102 22.2122C17.649 21.6408 18.8245 20.849 19.8367 19.8367C20.8571 18.8163 21.6531 17.6367 22.2245 16.298C22.7959 14.9592 23.0816 13.5265 23.0816 12C23.0816 10.4735 22.7959 9.04082 22.2245 7.70204C21.6531 6.36327 20.8571 5.18367 19.8367 4.16327C18.8163 3.14286 17.6367 2.34694 16.298 1.77551C14.9673 1.20408 13.5347 0.918367 12 0.918367C10.4735 0.918367 9.04082 1.20408 7.70204 1.77551C6.36327 2.34694 5.18367 3.14286 4.16327 4.16327C3.15102 5.18367 2.35918 6.36327 1.78776 7.70204C1.21633 9.04082 0.930612 10.4735 0.930612 12C0.930612 13.5265 1.21633 14.9592 1.78776 16.298C2.35918 17.6367 3.15102 18.8163 4.16327 19.8367C5.18367 20.849 6.36327 21.6408 7.70204 22.2122C9.04082 22.7837 10.4735 23.0694 12 23.0694ZM7.22449 14.6571C7.22449 13.9224 7.48571 13.2367 8.00816 12.6C8.53878 11.9633 9.2449 11.4939 10.1265 11.1918L10.3469 7.97143C10.0286 7.78367 9.70204 7.56327 9.36735 7.3102C9.04082 7.04898 8.78367 6.79592 8.59592 6.55102C8.39184 6.30612 8.2898 6.09796 8.2898 5.92653C8.2898 5.77143 8.34286 5.64898 8.44898 5.55918C8.56326 5.46122 8.70612 5.41224 8.87755 5.41224H15.1102C15.298 5.41224 15.4408 5.46122 15.5388 5.55918C15.6449 5.64898 15.698 5.77143 15.698 5.92653C15.698 6.09796 15.6163 6.2898 15.4531 6.50204C15.2653 6.7551 15 7.01633 14.6571 7.28571C14.3143 7.54694 13.9837 7.77551 13.6653 7.97143L13.8735 11.1918C14.7551 11.4939 15.4571 11.9633 15.9796 12.6C16.502 13.2367 16.7633 13.9224 16.7633 14.6571C16.7633 14.8531 16.698 15.0082 16.5673 15.1224C16.4367 15.2367 16.2653 15.2939 16.0531 15.2939H12.4408V18.2327C12.4408 18.5102 12.4122 18.7673 12.3551 19.0041C12.298 19.2327 12.2327 19.4204 12.1592 19.5673C12.0939 19.7143 12.0367 19.7878 11.9878 19.7878C11.9469 19.7878 11.8898 19.7143 11.8163 19.5673C11.751 19.4204 11.6898 19.2327 11.6327 19.0041C11.5837 18.7673 11.5592 18.5102 11.5592 18.2327V15.2939H7.93469C7.72245 15.2939 7.55102 15.2367 7.42041 15.1224C7.2898 15.0082 7.22449 14.8531 7.22449 14.6571Z" fill="#027884"/>
</svg>
