<svg width="26" height="27" viewBox="0 0 26 27" fill="none" xmlns="http://www.w3.org/2000/svg">
<path d="M0.424805 13.4189C0.424805 13.2487 0.482776 13.1051 0.598717 12.9881C0.725199 12.8604 0.867491 12.7966 1.02559 12.7966H12.3141V1.41889C12.3141 1.24867 12.3721 1.10505 12.488 0.988033C12.6039 0.871011 12.7462 0.8125 12.9149 0.8125C13.0835 0.8125 13.2258 0.871011 13.3418 0.988033C13.4682 1.10505 13.5315 1.24867 13.5315 1.41889V12.7966H24.7884C24.9675 12.7966 25.1151 12.8604 25.231 12.9881C25.347 13.1051 25.405 13.2487 25.405 13.4189C25.405 13.5892 25.347 13.7328 25.231 13.8498C25.1151 13.9668 24.9675 14.0253 24.7884 14.0253H13.5315V25.403C13.5315 25.5733 13.4682 25.7169 13.3418 25.8339C13.2258 25.9616 13.0835 26.0254 12.9149 26.0254C12.7462 26.0254 12.6039 25.9616 12.488 25.8339C12.3721 25.7169 12.3141 25.5733 12.3141 25.403V14.0253H1.02559C0.867491 14.0253 0.725199 13.9668 0.598717 13.8498C0.482776 13.7328 0.424805 13.5892 0.424805 13.4189Z" fill="#00474D"/>
</svg>
