<svg width="4" height="20" viewBox="0 0 4 20" fill="none" xmlns="http://www.w3.org/2000/svg">
<path d="M1.9979 4.10744C1.62594 4.10744 1.29045 4.01418 0.991428 3.82764C0.692404 3.64111 0.451726 3.39116 0.269394 3.07778C0.0943559 2.77187 0.0068366 2.42492 0.00683662 2.03693C0.00683663 1.66387 0.0943559 1.32065 0.269394 1.00727C0.451726 0.701362 0.692404 0.455139 0.991428 0.268607C1.29045 0.0895355 1.62594 -1.66333e-08 1.9979 0C2.36986 1.66333e-08 2.70535 0.0895356 3.00437 0.268607C3.31069 0.455139 3.55137 0.701362 3.72641 1.00727C3.90874 1.32065 3.9999 1.66387 3.9999 2.03693C3.9999 2.61145 3.80298 3.10017 3.40915 3.50308C3.0226 3.90599 2.55219 4.10744 1.9979 4.10744ZM1.9979 12.0425C1.62594 12.0425 1.29045 11.9493 0.991428 11.7627C0.692404 11.5837 0.451726 11.3412 0.269394 11.0353C0.0943555 10.7293 0.00683626 10.3861 0.00683628 10.0056C0.00683629 9.63253 0.0943556 9.28931 0.269394 8.97594C0.451726 8.66256 0.692404 8.41634 0.991428 8.23727C1.29045 8.0582 1.62594 7.96866 1.9979 7.96866C2.36986 7.96866 2.70535 8.0582 3.00437 8.23727C3.31069 8.41634 3.55137 8.66256 3.7264 8.97594C3.90874 9.28931 3.9999 9.63253 3.9999 10.0056C3.9999 10.5652 3.80298 11.0427 3.40915 11.4382C3.0226 11.8411 2.55219 12.0425 1.9979 12.0425ZM1.9979 20C1.62594 20 1.29045 19.9067 0.991428 19.7202C0.692403 19.5411 0.451725 19.2949 0.269394 18.9815C0.0943552 18.6756 0.00683592 18.3361 0.00683594 17.9631C0.00683595 17.5825 0.0943552 17.2356 0.269394 16.9222C0.451726 16.6163 0.692403 16.3701 0.991428 16.1835C1.29045 15.997 1.62594 15.9037 1.9979 15.9037C2.36986 15.9037 2.70535 15.997 3.00437 16.1835C3.31069 16.3701 3.55137 16.6163 3.7264 16.9222C3.90874 17.2356 3.9999 17.5825 3.9999 17.9631C3.9999 18.5227 3.80298 19.0002 3.40915 19.3956C3.0226 19.7985 2.55219 20 1.9979 20Z" fill="#313131"/>
</svg>
