<svg width="24" height="24" viewBox="0 0 24 24" fill="none" xmlns="http://www.w3.org/2000/svg">
<path d="M12 24C10.3569 24 8.80957 23.6849 7.35793 23.0548C5.91426 22.4327 4.63809 21.5713 3.52941 20.4706C2.42871 19.3619 1.56331 18.0857 0.9332 16.6421C0.311067 15.1904 0 13.6431 0 12C0 10.3569 0.311067 8.81356 0.9332 7.36989C1.56331 5.91825 2.42871 4.64207 3.52941 3.54138C4.63011 2.4327 5.90229 1.5673 7.34596 0.945165C8.79761 0.315055 10.345 0 11.988 0C13.6311 0 15.1785 0.315055 16.6301 0.945165C18.0818 1.5673 19.3579 2.4327 20.4586 3.54138C21.5593 4.64207 22.4247 5.91825 23.0548 7.36989C23.6849 8.81356 24 10.3569 24 12C24 13.6431 23.6849 15.1904 23.0548 16.6421C22.4247 18.0857 21.5593 19.3619 20.4586 20.4706C19.3579 21.5713 18.0818 22.4327 16.6301 23.0548C15.1864 23.6849 13.6431 24 12 24ZM12 22.4566C13.4437 22.4566 14.7996 22.1854 16.0678 21.6431C17.336 21.1007 18.4487 20.3509 19.4058 19.3938C20.3629 18.4367 21.1087 17.328 21.6431 16.0678C22.1854 14.7996 22.4566 13.4437 22.4566 12C22.4566 10.5563 22.1854 9.20439 21.6431 7.94417C21.1007 6.67597 20.347 5.56331 19.3819 4.60618C18.4247 3.64108 17.3161 2.89133 16.0558 2.35693C14.7956 1.81456 13.4397 1.54337 11.988 1.54337C10.5444 1.54337 9.18843 1.81456 7.92024 2.35693C6.66002 2.89133 5.55135 3.64108 4.59422 4.60618C3.64506 5.56331 2.8993 6.67597 2.35693 7.94417C1.82253 9.20439 1.55533 10.5563 1.55533 12C1.55533 13.4437 1.82253 14.7996 2.35693 16.0678C2.8993 17.328 3.64905 18.4367 4.60618 19.3938C5.56331 20.3509 6.67198 21.1007 7.9322 21.6431C9.19242 22.1854 10.5484 22.4566 12 22.4566ZM12 18.1256C11.1545 18.1256 10.3609 17.9661 9.61914 17.6471C8.87737 17.32 8.21934 16.8734 7.64506 16.3071C7.07876 15.7408 6.63609 15.0867 6.31705 14.345C5.99801 13.6032 5.83848 12.8136 5.83848 11.9761C5.83848 11.0987 6.02193 10.2572 6.38883 9.45164C6.75573 8.64606 7.2662 7.95613 7.92024 7.38185C8.08774 7.23031 8.25523 7.1665 8.42273 7.19043C8.59023 7.20638 8.72981 7.27418 8.84148 7.39382C8.96112 7.51346 9.02094 7.66102 9.02094 7.83649C9.02891 8.00399 8.94915 8.16351 8.78166 8.31505C8.25523 8.78564 7.84845 9.33599 7.56132 9.9661C7.28215 10.5962 7.14257 11.2662 7.14257 11.9761C7.14257 12.8774 7.35793 13.6949 7.78863 14.4287C8.22732 15.1625 8.81356 15.7488 9.54736 16.1874C10.2812 16.6261 11.0987 16.8455 12 16.8455C12.9013 16.8455 13.7188 16.6261 14.4526 16.1874C15.1864 15.7488 15.7727 15.1625 16.2114 14.4287C16.65 13.6949 16.8694 12.8774 16.8694 11.9761C16.8614 11.2662 16.7139 10.5962 16.4267 9.9661C16.1396 9.33599 15.7328 8.78963 15.2064 8.32702C15.0469 8.17547 14.9671 8.01595 14.9671 7.84845C14.9751 7.67298 15.0349 7.52542 15.1466 7.40578C15.2662 7.27817 15.4098 7.20638 15.5773 7.19043C15.7448 7.1665 15.9083 7.23031 16.0678 7.38185C16.7218 7.96411 17.2323 8.65803 17.5992 9.46361C17.9741 10.2692 18.1615 11.1067 18.1615 11.9761C18.1615 12.8136 17.998 13.6032 17.671 14.345C17.3519 15.0867 16.9093 15.7408 16.343 16.3071C15.7767 16.8734 15.1186 17.32 14.3689 17.6471C13.6271 17.9661 12.8375 18.1256 12 18.1256ZM12 12.1555C11.8086 12.1555 11.653 12.0957 11.5334 11.9761C11.4217 11.8564 11.3659 11.7049 11.3659 11.5214V6.11366C11.3659 5.91426 11.4217 5.75872 11.5334 5.64706C11.653 5.52742 11.8086 5.4676 12 5.4676C12.1834 5.4676 12.331 5.52742 12.4427 5.64706C12.5623 5.75872 12.6221 5.91426 12.6221 6.11366V11.5214C12.6221 11.7049 12.5623 11.8564 12.4427 11.9761C12.331 12.0957 12.1834 12.1555 12 12.1555Z" fill="#616161"/>
</svg>
