<svg width="40" height="48" viewBox="0 0 40 48" fill="none" xmlns="http://www.w3.org/2000/svg">
<g filter="url(#filter0_d_139_5597)">
<path d="M19.0549 39C16.4061 39 14.1013 38.5356 12.1405 37.6068C10.1911 36.6894 8.6775 35.3994 7.59962 33.7367C6.53321 32.0741 6 30.1247 6 27.8887C6 26.6961 6.09747 25.6527 6.2924 24.7582C6.49881 23.8524 6.74534 23.0325 7.03201 22.2986C7.33015 21.5647 7.62828 20.8595 7.92642 20.183C8.22456 19.495 8.47109 18.784 8.66603 18.0502C8.86097 17.3163 8.95843 16.4907 8.95843 15.5733C8.95843 15.1835 8.9355 14.7649 8.88963 14.3177C8.85523 13.8591 8.83803 13.515 8.83803 13.2857C8.83803 13.0908 8.88963 12.936 8.99283 12.8213C9.09603 12.6952 9.23937 12.6321 9.42284 12.6321C9.89298 12.6321 10.4376 12.7926 11.0569 13.1137C11.6761 13.4233 12.2609 13.8705 12.8113 14.4553C13.3617 15.0287 13.7745 15.7052 14.0497 16.485L13.4305 16.6398C13.786 16.1811 14.0382 15.7109 14.1873 15.2293C14.3364 14.7363 14.4109 14.226 14.4109 13.6985C14.4224 12.678 14.2217 11.6632 13.8089 10.6541C13.4075 9.63354 12.8858 8.64166 12.2437 7.67845C11.6015 6.71524 10.9307 5.8151 10.2312 4.97802C10.0822 4.79455 9.97324 4.63402 9.90444 4.49642C9.83564 4.34735 9.80124 4.20401 9.80124 4.06641C9.80124 3.71094 9.94458 3.4472 10.2312 3.2752C10.5179 3.09173 10.9365 3 11.4869 3C13.0463 3 14.6632 3.17774 16.3373 3.53321C18.0229 3.88868 19.6856 4.43908 21.3254 5.18442C22.9651 5.92977 24.5074 6.87578 25.9522 8.02246C27.4085 9.16914 28.6985 10.528 29.8223 12.0989C30.946 13.6699 31.829 15.4587 32.4711 17.4654C33.1132 19.472 33.4343 21.7195 33.4343 24.2078C33.4343 26.4324 33.0903 28.4563 32.4023 30.2795C31.7258 32.0913 30.7511 33.6507 29.4783 34.958C28.2054 36.2537 26.6861 37.2513 24.9202 37.9508C23.1658 38.6503 21.2107 39 19.0549 39ZM19.2613 34.1495C20.4998 34.1495 21.5318 33.8801 22.3574 33.3411C23.183 32.8022 23.7965 32.0913 24.1978 31.2083C24.5991 30.3139 24.7998 29.3507 24.7998 28.3187C24.7998 27.2981 24.5991 26.2719 24.1978 25.2398C23.7965 24.2078 23.2117 23.2561 22.4434 22.3846C21.6751 21.5131 20.7234 20.8022 19.5882 20.2518C19.5194 20.2174 19.462 20.2174 19.4161 20.2518C19.3817 20.2862 19.3703 20.3378 19.3818 20.4066C19.5882 21.7597 19.6054 22.9752 19.4333 24.053C19.2728 25.1309 18.9804 25.9451 18.5561 26.4955C18.3383 26.0483 18.0917 25.624 17.8165 25.2226C17.5413 24.8098 17.2145 24.4544 16.8361 24.1562C16.7903 24.1104 16.7444 24.0989 16.6985 24.1218C16.6527 24.1333 16.624 24.1734 16.6125 24.2422C16.5437 24.6894 16.3889 25.1022 16.1481 25.4806C15.9188 25.8591 15.6665 26.2489 15.3913 26.6503C15.1276 27.0401 14.8982 27.4873 14.7033 27.9919C14.5084 28.4849 14.4109 29.0755 14.4109 29.7635C14.4109 31.0707 14.8524 32.1314 15.7353 32.9455C16.6183 33.7482 17.7936 34.1495 19.2613 34.1495Z" fill="url(#paint0_linear_139_5597)"/>
</g>
<defs>
<filter id="filter0_d_139_5597" x="0" y="0" width="39.4343" height="48" filterUnits="userSpaceOnUse" color-interpolation-filters="sRGB">
<feFlood flood-opacity="0" result="BackgroundImageFix"/>
<feColorMatrix in="SourceAlpha" type="matrix" values="0 0 0 0 0 0 0 0 0 0 0 0 0 0 0 0 0 0 127 0" result="hardAlpha"/>
<feOffset dy="3"/>
<feGaussianBlur stdDeviation="3"/>
<feComposite in2="hardAlpha" operator="out"/>
<feColorMatrix type="matrix" values="0 0 0 0 0 0 0 0 0 0 0 0 0 0 0 0 0 0 0.16 0"/>
<feBlend mode="normal" in2="BackgroundImageFix" result="effect1_dropShadow_139_5597"/>
<feBlend mode="normal" in="SourceGraphic" in2="effect1_dropShadow_139_5597" result="shape"/>
</filter>
<linearGradient id="paint0_linear_139_5597" x1="19.7172" y1="3" x2="19.7172" y2="39" gradientUnits="userSpaceOnUse">
<stop stop-color="#BB7392"/>
<stop offset="1" stop-color="#781853"/>
</linearGradient>
</defs>
</svg>
