<svg width="20" height="20" viewBox="0 0 20 20" fill="none" xmlns="http://www.w3.org/2000/svg">
<path d="M10 20C8.63077 20 7.34131 19.7375 6.13161 19.2124C4.92855 18.6939 3.86507 17.9761 2.94118 17.0588C2.02393 16.1349 1.30276 15.0715 0.777667 13.8684C0.259222 12.6587 0 11.3692 0 10C0 8.63077 0.259222 7.34463 0.777667 6.14157C1.30276 4.93187 2.02393 3.86839 2.94118 2.95115C3.85842 2.02725 4.91858 1.30608 6.12163 0.787637C7.33134 0.262546 8.6208 0 9.99003 0C11.3593 0 12.6487 0.262546 13.8584 0.787637C15.0681 1.30608 16.1316 2.02725 17.0489 2.95115C17.9661 3.86839 18.6873 4.93187 19.2124 6.14157C19.7375 7.34463 20 8.63077 20 10C20 11.3692 19.7375 12.6587 19.2124 13.8684C18.6873 15.0715 17.9661 16.1349 17.0489 17.0588C16.1316 17.9761 15.0681 18.6939 13.8584 19.2124C12.6554 19.7375 11.3692 20 10 20ZM6.64008 14.008C6.82619 14.008 6.98571 13.9415 7.11864 13.8086L10 10.9172L12.8913 13.8086C13.0176 13.9415 13.1738 14.008 13.3599 14.008C13.5394 14.008 13.6889 13.9448 13.8086 13.8185C13.9349 13.6923 13.998 13.5427 13.998 13.3699C13.998 13.1771 13.9349 13.0243 13.8086 12.9113L10.9073 10.01L13.8185 7.10867C13.9448 6.97574 14.008 6.81954 14.008 6.64008C14.008 6.46726 13.9448 6.32104 13.8185 6.2014C13.6989 6.07511 13.5494 6.01196 13.3699 6.01196C13.1971 6.01196 13.0475 6.07843 12.9212 6.21137L10 9.11266L7.0987 6.22134C6.96577 6.09505 6.81289 6.0319 6.64008 6.0319C6.46062 6.0319 6.30774 6.09172 6.18146 6.21137C6.06181 6.33101 6.00199 6.47723 6.00199 6.65005C6.00199 6.82286 6.06514 6.97574 6.19143 7.10867L9.10269 10.01L6.19143 12.9113C6.06514 13.0442 6.00199 13.1971 6.00199 13.3699C6.00199 13.5427 6.06181 13.6923 6.18146 13.8185C6.30774 13.9448 6.46062 14.008 6.64008 14.008Z" fill="#E4E4E4"/>
</svg>
