<svg width="10" height="15" viewBox="0 0 10 15" fill="none" xmlns="http://www.w3.org/2000/svg">
<path d="M9.05469 7.35938C9.05469 7.51562 9.02344 7.66406 8.96094 7.80469C8.90365 7.9401 8.8099 8.07031 8.67969 8.19531L2.67188 14.0781C2.46875 14.276 2.22135 14.375 1.92969 14.375C1.74219 14.375 1.56771 14.3281 1.40625 14.2344C1.24479 14.1406 1.11458 14.0156 1.01562 13.8594C0.921875 13.7031 0.875 13.526 0.875 13.3281C0.875 13.0417 0.984375 12.7865 1.20312 12.5625L6.55469 7.35938L1.20312 2.15625C0.984375 1.9375 0.875 1.68229 0.875 1.39062C0.875 1.19792 0.921875 1.02344 1.01562 0.867188C1.11458 0.705729 1.24479 0.578125 1.40625 0.484375C1.56771 0.390625 1.74219 0.34375 1.92969 0.34375C2.22135 0.34375 2.46875 0.442708 2.67188 0.640625L8.67969 6.52344C8.80469 6.64844 8.89844 6.77865 8.96094 6.91406C9.02344 7.04948 9.05469 7.19792 9.05469 7.35938Z" fill="#856A31"/>
</svg>
