<svg width="15" height="20" viewBox="0 0 15 20" fill="none" xmlns="http://www.w3.org/2000/svg">
<path d="M0.992024 20C0.683395 20 0.4409 19.911 0.26454 19.7331C0.08818 19.5615 0 19.3232 0 19.0181V2.55481C0 1.70956 0.246169 1.07404 0.738507 0.648236C1.23085 0.216079 1.95833 0 2.92096 0H11.4524C12.415 0 13.1425 0.216079 13.6348 0.648236C14.1272 1.07404 14.3733 1.70956 14.3733 2.55481V19.0181C14.3733 19.3232 14.2852 19.5615 14.1088 19.7331C13.9324 19.911 13.6899 20 13.3813 20C13.1609 20 12.9551 19.9396 12.764 19.8189C12.5803 19.6981 12.3048 19.4852 11.9374 19.1802L7.27485 15.1192C7.21606 15.0683 7.15727 15.0683 7.09849 15.1192L2.43597 19.1802C2.06855 19.4916 1.78932 19.7045 1.59826 19.8189C1.40721 19.9396 1.20513 20 0.992024 20ZM1.68644 18.103L6.69065 13.775C6.83762 13.6543 7.00296 13.5939 7.18667 13.5939C7.37037 13.5939 7.53571 13.6543 7.68268 13.775L12.6869 18.103C12.7751 18.1729 12.8559 18.1983 12.9294 18.1792C13.0029 18.1665 13.0396 18.1093 13.0396 18.0076V2.57388C13.0396 2.10359 12.9 1.75087 12.6208 1.51573C12.3415 1.27423 11.93 1.15348 11.3862 1.15348H2.9871C2.44332 1.15348 2.03181 1.27423 1.75258 1.51573C1.47334 1.75087 1.33372 2.10359 1.33372 2.57388V18.0076C1.33372 18.1093 1.37046 18.1665 1.44395 18.1792C1.51743 18.1983 1.59826 18.1729 1.68644 18.103Z" fill="#616161"/>
</svg>
