<svg width="20" height="20" viewBox="0 0 20 20" fill="none" xmlns="http://www.w3.org/2000/svg">
<path d="M0 7.83019C0 6.75402 0.204369 5.74423 0.613108 4.80084C1.02889 3.85045 1.59619 3.01887 2.31501 2.30608C3.04087 1.5863 3.87949 1.02376 4.83087 0.618449C5.78929 0.20615 6.81113 0 7.89641 0C8.98168 0 10 0.20615 10.9514 0.618449C11.9098 1.02376 12.7519 1.5863 13.4778 2.30608C14.2037 3.01887 14.771 3.85045 15.1797 4.80084C15.5884 5.74423 15.7928 6.75402 15.7928 7.83019C15.7928 8.80154 15.6237 9.72048 15.2854 10.587C14.9471 11.4535 14.482 12.2292 13.8901 12.914L19.778 18.7736C19.8485 18.8435 19.9013 18.9203 19.9366 19.0042C19.9789 19.088 20 19.1754 20 19.2662C20 19.399 19.9683 19.5213 19.9049 19.6331C19.8485 19.7449 19.7639 19.8323 19.6512 19.8952C19.5455 19.9651 19.4151 20 19.26 20C19.1614 20 19.0662 19.979 18.9746 19.9371C18.8901 19.8952 18.8161 19.8463 18.7526 19.7904L12.8541 13.9099C12.1776 14.4619 11.4165 14.8917 10.5708 15.1992C9.72516 15.5066 8.83369 15.6604 7.89641 15.6604C6.81113 15.6604 5.78929 15.4577 4.83087 15.0524C3.87949 14.6471 3.04087 14.0846 2.31501 13.3648C1.59619 12.638 1.02889 11.8029 0.613108 10.8595C0.204369 9.91614 0 8.90636 0 7.83019ZM0.803383 7.83019C0.803383 8.79455 0.98661 9.703 1.35307 10.5556C1.71952 11.4081 2.23044 12.1558 2.88584 12.7987C3.54123 13.4416 4.29528 13.9483 5.14799 14.3187C6.00775 14.682 6.92389 14.8637 7.89641 14.8637C8.87597 14.8637 9.79211 14.682 10.6448 14.3187C11.5046 13.9483 12.2586 13.4416 12.907 12.7987C13.5624 12.1558 14.0733 11.4081 14.4397 10.5556C14.8062 9.703 14.9894 8.79455 14.9894 7.83019C14.9894 6.85884 14.8062 5.95038 14.4397 5.10482C14.0733 4.25227 13.5624 3.50454 12.907 2.86164C12.2586 2.21174 11.5046 1.7051 10.6448 1.34172C9.79211 0.971349 8.87597 0.786164 7.89641 0.786164C6.92389 0.786164 6.00775 0.971349 5.14799 1.34172C4.29528 1.7051 3.54123 2.21174 2.88584 2.86164C2.23044 3.50454 1.71952 4.25227 1.35307 5.10482C0.98661 5.95038 0.803383 6.85884 0.803383 7.83019Z" fill="#313131"/>
</svg>
