<svg width="20" height="20" viewBox="0 0 20 20" fill="none" xmlns="http://www.w3.org/2000/svg">
<path d="M12.0458 20C11.767 20 11.5514 19.9038 11.3987 19.7113C11.2527 19.5188 11.1233 19.2301 11.0105 18.8452L8.78049 11.1996L1.14485 8.97959C0.753277 8.86677 0.464576 8.73735 0.278746 8.59134C0.0929152 8.43869 0 8.22631 0 7.95421C0 7.71528 0.08296 7.50954 0.24888 7.33698C0.421437 7.16443 0.670317 7.0151 0.99552 6.889L18.6959 0.129418C18.822 0.08296 18.9381 0.049776 19.0443 0.0298656C19.1505 0.0099552 19.2467 0 19.333 0C19.5454 0 19.708 0.0564128 19.8208 0.169238C19.9403 0.282064 20 0.447984 20 0.666999C20 0.753277 19.99 0.849511 19.9701 0.955699C19.9502 1.06189 19.917 1.17803 19.8706 1.30413L13.121 18.9945C12.9882 19.3264 12.8356 19.5752 12.663 19.7412C12.4905 19.9137 12.2847 20 12.0458 20ZM8.9995 10.5027L17.8895 1.59283C17.989 1.49992 18.1483 1.36718 18.3673 1.19462C18.5864 1.02207 18.7589 0.886013 18.885 0.786461C18.7656 0.839555 18.6162 0.905923 18.437 0.985565C18.2645 1.06521 18.0886 1.13821 17.9094 1.20458L1.32404 7.52613C1.14485 7.5925 1.02207 7.65887 0.955699 7.72524C0.889331 7.78497 0.856147 7.85134 0.856147 7.92434C0.856147 7.99734 0.89265 8.06039 0.965655 8.11349C1.03866 8.16658 1.18799 8.22631 1.41364 8.29268L8.9995 10.5027ZM12.0757 19.1439C12.1487 19.1439 12.215 19.1107 12.2748 19.0443C12.3411 18.9779 12.4075 18.8552 12.4739 18.676L18.7954 2.09059C18.8684 1.90476 18.9447 1.72889 19.0244 1.56297C19.104 1.39041 19.1737 1.24108 19.2334 1.11498C19.1206 1.25436 18.9779 1.43355 18.8054 1.65256C18.6328 1.86494 18.5001 2.01759 18.4072 2.1105L9.48731 11.0105L11.7073 18.5864C11.7737 18.812 11.8334 18.9613 11.8865 19.0343C11.9396 19.1074 12.0027 19.1439 12.0757 19.1439Z" fill="#00474D"/>
</svg>
