<svg width="24" height="24" viewBox="0 0 24 24" fill="none" xmlns="http://www.w3.org/2000/svg">
<path d="M12 24C10.3569 24 8.80957 23.6849 7.35793 23.0548C5.91426 22.4327 4.63809 21.5713 3.52941 20.4706C2.42871 19.3619 1.56331 18.0857 0.9332 16.6421C0.311067 15.1904 0 13.6431 0 12C0 10.3569 0.311067 8.81356 0.9332 7.36989C1.56331 5.91825 2.42871 4.64207 3.52941 3.54138C4.63011 2.4327 5.90229 1.5673 7.34596 0.945165C8.79761 0.315055 10.345 0 11.988 0C13.6311 0 15.1785 0.315055 16.6301 0.945165C18.0818 1.5673 19.3579 2.4327 20.4586 3.54138C21.5593 4.64207 22.4247 5.91825 23.0548 7.36989C23.6849 8.81356 24 10.3569 24 12C24 13.6431 23.6849 15.1904 23.0548 16.6421C22.4247 18.0857 21.5593 19.3619 20.4586 20.4706C19.3579 21.5713 18.0818 22.4327 16.6301 23.0548C15.1864 23.6849 13.6431 24 12 24ZM12 22.4566C13.4437 22.4566 14.7996 22.1854 16.0678 21.6431C17.336 21.1007 18.4487 20.3509 19.4058 19.3938C20.3629 18.4367 21.1087 17.328 21.6431 16.0678C22.1854 14.7996 22.4566 13.4437 22.4566 12C22.4566 10.5563 22.1854 9.20439 21.6431 7.94417C21.1007 6.67597 20.347 5.56331 19.3819 4.60618C18.4247 3.64108 17.3161 2.89133 16.0558 2.35693C14.7956 1.81456 13.4397 1.54337 11.988 1.54337C10.5444 1.54337 9.18843 1.81456 7.92024 2.35693C6.66002 2.89133 5.55135 3.64108 4.59422 4.60618C3.64506 5.56331 2.8993 6.67597 2.35693 7.94417C1.82253 9.20439 1.55533 10.5563 1.55533 12C1.55533 13.4437 1.82253 14.7996 2.35693 16.0678C2.8993 17.328 3.64905 18.4367 4.60618 19.3938C5.56331 20.3509 6.67198 21.1007 7.9322 21.6431C9.19242 22.1854 10.5484 22.4566 12 22.4566ZM11.342 18.999C11.1585 18.999 11.007 18.9511 10.8873 18.8554C10.7677 18.7517 10.6879 18.6082 10.6481 18.4247L10.3011 16.9771C10.1815 16.9292 10.0658 16.8853 9.95414 16.8455C9.84247 16.7976 9.7348 16.7498 9.63111 16.7019L8.36291 17.4915C8.21137 17.5952 8.05583 17.6391 7.89631 17.6231C7.73679 17.6072 7.59322 17.5354 7.4656 17.4078L6.5683 16.5105C6.44068 16.3749 6.36491 16.2273 6.34098 16.0678C6.32503 15.9083 6.37288 15.7527 6.48455 15.6012L7.26221 14.333C7.20638 14.2213 7.15852 14.1137 7.11864 14.01C7.07876 13.8983 7.03888 13.7866 6.999 13.675L5.55135 13.34C5.16849 13.2443 4.97707 13.009 4.97707 12.6341V11.3539C4.97707 10.9711 5.16849 10.7398 5.55135 10.66L6.98704 10.3131C7.0349 10.1854 7.07876 10.0698 7.11864 9.9661C7.1665 9.85444 7.21037 9.74676 7.25025 9.64307L6.46062 8.37488C6.36491 8.21535 6.32104 8.05982 6.32901 7.90828C6.34496 7.74875 6.42074 7.6012 6.55633 7.4656L7.4656 6.5683C7.73679 6.31306 8.0319 6.28116 8.35095 6.47258L9.61914 7.27418C9.73081 7.21835 9.84247 7.17049 9.95414 7.13061C10.0658 7.08275 10.1815 7.03888 10.3011 6.999L10.6481 5.55135C10.6879 5.35992 10.7677 5.21635 10.8873 5.12064C11.007 5.01695 11.1585 4.9651 11.342 4.9651H12.6341C12.8175 4.9651 12.9691 5.01695 13.0887 5.12064C13.2164 5.21635 13.3001 5.35992 13.34 5.55135L13.6869 6.999C13.8066 7.04686 13.9222 7.09472 14.0339 7.14257C14.1456 7.18245 14.2493 7.22632 14.345 7.27418L15.6371 6.47258C15.9561 6.28116 16.2473 6.31306 16.5105 6.5683L17.4317 7.4656C17.5593 7.6012 17.6311 7.74875 17.6471 7.90828C17.663 8.05982 17.6231 8.21535 17.5274 8.37488L16.7258 9.64307C16.7657 9.74676 16.8096 9.85444 16.8574 9.9661C16.9053 10.0698 16.9492 10.1854 16.989 10.3131L18.4367 10.66C18.8195 10.7398 19.011 10.9711 19.011 11.3539V12.6341C19.011 13.009 18.8195 13.2443 18.4367 13.34L16.9771 13.675C16.9372 13.7866 16.8933 13.8983 16.8455 14.01C16.8056 14.1137 16.7657 14.2213 16.7258 14.333L17.5035 15.6012C17.6072 15.7527 17.651 15.9083 17.6351 16.0678C17.6191 16.2273 17.5474 16.3749 17.4197 16.5105L16.5105 17.4078C16.3908 17.5354 16.2512 17.6072 16.0917 17.6231C15.9322 17.6391 15.7767 17.5952 15.6251 17.4915L14.345 16.7019C14.2493 16.7498 14.1416 16.7976 14.0219 16.8455C13.9103 16.8853 13.7986 16.9292 13.6869 16.9771L13.34 18.4247C13.3001 18.6082 13.2164 18.7517 13.0887 18.8554C12.9691 18.9511 12.8175 18.999 12.6341 18.999H11.342ZM12 14.3928C12.662 14.3928 13.2283 14.1575 13.6989 13.6869C14.1775 13.2084 14.4167 12.6341 14.4167 11.9641C14.4167 11.3101 14.1775 10.7478 13.6989 10.2772C13.2283 9.7986 12.662 9.55932 12 9.55932C11.33 9.55932 10.7597 9.7986 10.2891 10.2772C9.81854 10.7478 9.58325 11.3101 9.58325 11.9641C9.58325 12.6341 9.81854 13.2084 10.2891 13.6869C10.7597 14.1575 11.33 14.3928 12 14.3928Z" fill="#616161"/>
</svg>
