<svg width="20" height="16" viewBox="0 0 20 16" fill="none" xmlns="http://www.w3.org/2000/svg">
<path d="M10.9702 15.5844C10.6925 15.5844 10.4654 15.5004 10.2887 15.3325C10.1183 15.1703 10.0331 14.9647 10.0331 14.7157V11.2496H9.71131C8.39249 11.2496 7.23458 11.3683 6.23758 11.6058C5.24057 11.8374 4.37924 12.2284 3.65357 12.7785C2.92791 13.3229 2.31267 14.0642 1.80786 15.0024C1.67534 15.2456 1.5239 15.402 1.35353 15.4715C1.18946 15.5468 1.01593 15.5844 0.832939 15.5844C0.612084 15.5844 0.416469 15.5004 0.246096 15.3325C0.0820319 15.1645 0 14.9271 0 14.6202C0 12.9638 0.20508 11.4986 0.615239 10.2246C1.0254 8.95047 1.63433 7.87908 2.44203 7.01038C3.25603 6.14168 4.26881 5.48437 5.48036 5.03844C6.69822 4.59251 8.10853 4.36954 9.71131 4.36954H10.0331V0.894757C10.0331 0.651522 10.1183 0.443035 10.2887 0.269296C10.4654 0.0897653 10.6957 0 10.9796 0C11.1753 0 11.3519 0.0405392 11.5097 0.121618C11.6738 0.202696 11.8536 0.330105 12.0492 0.503844L19.4983 6.88008C19.7003 7.05382 19.8328 7.21597 19.8959 7.36655C19.9653 7.51712 20 7.65901 20 7.79221C20 7.92541 19.9653 8.0673 19.8959 8.21787C19.8328 8.36844 19.7003 8.5306 19.4983 8.70434L12.0492 15.1153C11.8662 15.2717 11.6895 15.3875 11.5192 15.4628C11.3488 15.5439 11.1658 15.5844 10.9702 15.5844ZM11.3488 14.1945C11.4119 14.1945 11.4782 14.1598 11.5476 14.0903L18.5329 8.07888C18.6023 8.01517 18.6496 7.96305 18.6749 7.92251C18.7001 7.87618 18.7127 7.83275 18.7127 7.79221C18.7127 7.70534 18.6528 7.60978 18.5329 7.50554L11.557 1.43335C11.5255 1.41018 11.4908 1.38991 11.4529 1.37254C11.4214 1.35517 11.3898 1.34648 11.3583 1.34648C11.2573 1.34648 11.2068 1.39281 11.2068 1.48547V5.11662C11.2068 5.29615 11.109 5.38592 10.9134 5.38592H9.86275C8.62597 5.38592 7.53116 5.52491 6.57832 5.80289C5.62549 6.08088 4.80517 6.48048 4.11737 7.00169C3.42956 7.52291 2.86165 8.14258 2.41363 8.8607C1.96561 9.57883 1.62802 10.3751 1.40085 11.2496C1.18 12.1241 1.05695 13.0565 1.03171 14.0468C1.03171 14.1221 1.06326 14.1598 1.12636 14.1598C1.15791 14.1598 1.18315 14.1482 1.20208 14.125C1.22101 14.1018 1.23994 14.07 1.25887 14.0294C1.83941 12.8133 2.84587 11.878 4.27828 11.2236C5.71699 10.5633 7.57848 10.2332 9.86275 10.2332H10.9134C11.109 10.2332 11.2068 10.323 11.2068 10.5025V14.0381C11.2068 14.1424 11.2541 14.1945 11.3488 14.1945Z" fill="#616161"/>
</svg>
