<svg width="21" height="20" viewBox="0 0 21 20" fill="none" xmlns="http://www.w3.org/2000/svg">
<path d="M4.01477 19.8611C3.86199 19.7393 3.76727 19.579 3.73061 19.3802C3.70005 19.1814 3.73366 18.9346 3.83144 18.6396L5.78393 12.4841L0.751448 8.67541C0.513115 8.50229 0.351171 8.32596 0.265616 8.14642C0.18006 7.96048 0.164783 7.77132 0.219783 7.57896C0.280893 7.39302 0.397004 7.25195 0.568115 7.15577C0.739225 7.05959 0.974502 7.01471 1.27395 7.02112L7.45226 7.04997L9.33142 0.865618C9.4292 0.570666 9.54531 0.352659 9.67976 0.211595C9.82031 0.0705318 9.98225 0 10.1656 0C10.355 0 10.52 0.0705318 10.6606 0.211595C10.8011 0.352659 10.9173 0.570666 11.0089 0.865618L12.8881 7.04997L19.0756 7.02112C19.3689 7.01471 19.6011 7.05959 19.7722 7.15577C19.9433 7.25195 20.0594 7.39302 20.1206 7.57896C20.1756 7.77132 20.1603 7.96048 20.0747 8.14642C19.9892 8.32596 19.8272 8.50229 19.5889 8.67541L14.5564 12.4841L16.5181 18.6396C16.6097 18.9346 16.6372 19.1814 16.6006 19.3802C16.57 19.579 16.4783 19.7393 16.3256 19.8611C16.1728 19.9829 15.9986 20.0246 15.8031 19.9861C15.6136 19.9541 15.4028 19.8515 15.1706 19.6784L10.1656 15.8312L5.16977 19.6784C4.93755 19.8515 4.72366 19.9541 4.5281 19.9861C4.33866 20.0246 4.16755 19.9829 4.01477 19.8611ZM4.9956 18.4473C5.00782 18.4665 5.04143 18.4569 5.09643 18.4184L9.77142 14.7251C9.89975 14.6225 10.0311 14.5712 10.1656 14.5712C10.3061 14.5712 10.4406 14.6225 10.5689 14.7251L15.2439 18.4184C15.2989 18.4569 15.3325 18.4665 15.3447 18.4473C15.357 18.4409 15.357 18.4056 15.3447 18.3415L13.4564 12.5226C13.4197 12.4136 13.4014 12.3142 13.4014 12.2244C13.4075 12.1283 13.435 12.0417 13.4839 11.9648C13.5328 11.8814 13.6 11.8077 13.6856 11.7435L18.4889 8.21375C18.5378 8.17528 18.5592 8.14322 18.5531 8.11757C18.5408 8.09833 18.5042 8.08872 18.4431 8.08872L12.5764 8.16566C12.4175 8.17207 12.2861 8.13681 12.1822 8.05986C12.0784 7.98292 12.002 7.86109 11.9531 7.69438L10.2298 1.8178C10.2175 1.75368 10.1961 1.72162 10.1656 1.72162C10.1473 1.72162 10.1289 1.75368 10.1106 1.8178L8.38726 7.69438C8.33837 7.86109 8.26198 7.98292 8.15809 8.05986C8.0542 8.13681 7.92282 8.17207 7.76393 8.16566L1.89728 8.08872C1.83617 8.08872 1.80256 8.09833 1.79644 8.11757C1.78422 8.14322 1.80256 8.17528 1.85144 8.21375L6.65476 11.7435C6.74032 11.8077 6.80754 11.8814 6.85643 11.9648C6.90532 12.0417 6.92976 12.1283 6.92976 12.2244C6.93587 12.3142 6.9206 12.4136 6.88393 12.5226L4.9956 18.3415C4.97727 18.4056 4.97727 18.4409 4.9956 18.4473Z" fill="#313131"/>
</svg>
