<svg width="16" height="16" viewBox="0 0 16 16" fill="none" xmlns="http://www.w3.org/2000/svg">
<path d="M3.4195 13.9945C2.91778 13.9945 2.55732 13.8847 2.33812 13.6651C2.11892 13.4456 2.00932 13.0845 2.00932 12.5819V10.7447C2.00932 10.574 1.94843 10.4276 1.82665 10.3056L0.533383 8.99543C0.177794 8.6441 0 8.31473 0 8.00732C0 7.69991 0.177794 7.3681 0.533383 7.01189L1.82665 5.70906C1.94843 5.58219 2.00932 5.4358 2.00932 5.2699V3.42543C2.00932 2.92284 2.11892 2.56176 2.33812 2.34218C2.55732 2.1226 2.91778 2.01281 3.4195 2.01281H5.25346C5.42882 2.01281 5.57495 1.95425 5.69186 1.83715L6.99243 0.541629C7.34802 0.180543 7.67926 0 7.98614 0C8.29301 0 8.62181 0.180543 8.97253 0.541629L10.2804 1.83715C10.3973 1.95425 10.5435 2.01281 10.7188 2.01281H12.5601C13.0569 2.01281 13.415 2.12504 13.6342 2.3495C13.8534 2.56908 13.9629 2.92772 13.9629 3.42543V5.2699C13.9629 5.4358 14.0238 5.58219 14.1456 5.70906L15.4389 7.01189C15.7945 7.3681 15.9723 7.69991 15.9723 8.00732C15.9723 8.31473 15.7945 8.6441 15.4389 8.99543L14.1456 10.3056C14.0238 10.4276 13.9629 10.574 13.9629 10.7447V12.5819C13.9629 13.0845 13.8534 13.4456 13.6342 13.6651C13.4198 13.8847 13.0618 13.9945 12.5601 13.9945H10.7188C10.5435 13.9945 10.3973 14.0531 10.2804 14.1702L8.97253 15.473C8.62668 15.8243 8.29788 16 7.98614 16C7.67926 16 7.35046 15.8243 6.99974 15.473L5.69186 14.1702C5.57495 14.0531 5.42882 13.9945 5.25346 13.9945H3.4195ZM7.21163 11.4913C7.26522 11.4913 7.31393 11.4791 7.35777 11.4547C7.40161 11.4303 7.44301 11.3937 7.48198 11.3449L11.3326 5.36505C11.3472 5.33577 11.3618 5.30406 11.3764 5.2699C11.391 5.23086 11.3983 5.19427 11.3983 5.16011C11.3983 5.08692 11.3691 5.02592 11.3106 4.97713C11.2522 4.92345 11.1889 4.89662 11.1207 4.89662C11.033 4.89662 10.9502 4.94541 10.8722 5.043L7.19702 10.796L5.17309 8.4172C5.13412 8.36841 5.09515 8.33425 5.05618 8.31473C5.01721 8.29521 4.9685 8.28545 4.91005 8.28545C4.84185 8.28545 4.78096 8.31229 4.72738 8.36597C4.6738 8.41964 4.64701 8.48307 4.64701 8.55627C4.64701 8.60018 4.65432 8.64166 4.66893 8.6807C4.68354 8.71485 4.70546 8.75145 4.73469 8.79049L6.92668 11.3449C6.97052 11.3986 7.01192 11.4376 7.05089 11.462C7.09473 11.4815 7.14831 11.4913 7.21163 11.4913Z" fill="#AA4D75"/>
</svg>
