<svg width="16" height="16" viewBox="0 0 16 16" fill="none" xmlns="http://www.w3.org/2000/svg">
<path d="M3.60249 14.0662C3.02475 14.0662 2.60219 13.9325 2.33481 13.6651C2.07221 13.3977 1.9409 12.9776 1.9409 12.4046V10.743C1.9409 10.5902 1.88838 10.4613 1.78334 10.3563L0.60877 9.17453C0.202923 8.76868 0 8.37954 0 8.00712C0 7.6347 0.202923 7.24317 0.60877 6.83255L1.78334 5.65798C1.88838 5.54817 1.9409 5.41925 1.9409 5.27123V3.60249C1.9409 3.02475 2.07221 2.60458 2.33481 2.34198C2.60219 2.07459 3.02475 1.9409 3.60249 1.9409H5.25691C5.41447 1.9409 5.54578 1.89077 5.65082 1.7905L6.82539 0.615932C7.23124 0.205311 7.62037 0 7.9928 0C8.37 0 8.76152 0.205311 9.16737 0.615932L10.3419 1.7905C10.4518 1.89077 10.5831 1.9409 10.7358 1.9409H12.3974C12.9752 1.9409 13.3953 2.07698 13.6579 2.34914C13.9253 2.61652 14.059 3.0343 14.059 3.60249V5.27123C14.059 5.41925 14.1115 5.54817 14.2166 5.65798L15.3911 6.83255C15.797 7.24317 15.9999 7.6347 15.9999 8.00712C15.9999 8.37954 15.797 8.76868 15.3911 9.17453L14.2166 10.3563C14.1115 10.4613 14.059 10.5902 14.059 10.743V12.4046C14.059 12.9823 13.9253 13.4025 13.6579 13.6651C13.3906 13.9325 12.9704 14.0662 12.3974 14.0662H10.7358C10.5831 14.0662 10.4518 14.1187 10.3419 14.2237L9.16737 15.3983C8.76152 15.7994 8.37 15.9999 7.9928 15.9999C7.62037 16.0047 7.23362 15.8042 6.83255 15.3983L5.65082 14.2237C5.54578 14.1187 5.41447 14.0662 5.25691 14.0662H3.60249ZM7.2193 11.4664C7.31002 11.4664 7.39358 11.4449 7.46997 11.4019C7.54636 11.3589 7.61321 11.2945 7.67051 11.2085L11.2157 5.66514C11.2491 5.61262 11.2778 5.55533 11.3016 5.49326C11.3303 5.43119 11.3446 5.36912 11.3446 5.30704C11.3446 5.1829 11.2969 5.08264 11.2014 5.00624C11.1059 4.92985 11.0008 4.89165 10.8862 4.89165C10.7287 4.89165 10.5974 4.9752 10.4923 5.14232L7.19781 10.3634L5.50758 8.28644C5.44074 8.20049 5.37389 8.14081 5.30704 8.10739C5.24497 8.07397 5.17335 8.05725 5.09218 8.05725C4.97282 8.05725 4.87016 8.10261 4.78422 8.19333C4.69827 8.28405 4.6553 8.39148 4.6553 8.51562C4.6553 8.57769 4.66724 8.63976 4.69111 8.70183C4.71499 8.75913 4.74841 8.81643 4.79138 8.87372L6.73945 11.2085C6.81107 11.2993 6.88507 11.3661 6.96147 11.4091C7.03786 11.4473 7.12381 11.4664 7.2193 11.4664Z" fill="#027884"/>
</svg>
